<svg version="1.1" viewBox="0.0 0.0 436.95800524934384 324.34645669291336" fill="none" stroke="none" stroke-linecap="square" stroke-miterlimit="10" xmlns:xlink="http://www.w3.org/1999/xlink" xmlns="http://www.w3.org/2000/svg"><clipPath id="p.0"><path d="m0 0l436.958 0l0 324.34647l-436.958 0l0 -324.34647z" clip-rule="nonzero"/></clipPath><g clip-path="url(#p.0)"><path fill="#000000" fill-opacity="0.0" d="m0 0l436.958 0l0 324.34647l-436.958 0z" fill-rule="evenodd"/><path fill="#ffd966" d="m179.23097 150.41733l145.41731 0l0 79.1181l-145.41731 0z" fill-rule="evenodd"/><path stroke="#000000" stroke-width="1.0" stroke-linejoin="round" stroke-linecap="butt" d="m179.23097 150.41733l145.41731 0l0 79.1181l-145.41731 0z" fill-rule="evenodd"/><path fill="#cfe2f3" d="m179.22572 251.80315l145.41731 0l0 59.87401l-145.41731 0z" fill-rule="evenodd"/><path stroke="#000000" stroke-width="1.0" stroke-linejoin="round" stroke-linecap="butt" d="m179.22572 251.80315l145.41731 0l0 59.87401l-145.41731 0z" fill-rule="evenodd"/><path fill="#000000" d="m216.31401 288.66016l-4.78125 -10.390625l0 8.25q0 1.140625 0.25 1.421875q0.328125 0.375 1.0625 0.375l0.4375 0l0 0.34375l-4.296875 0l0 -0.34375l0.4375 0q0.78125 0 1.109375 -0.46875q0.203125 -0.296875 0.203125 -1.328125l0 -8.078125q0 -0.8125 -0.1875 -1.171875q-0.125 -0.265625 -0.46875 -0.4375q-0.34375 -0.1875 -1.09375 -0.1875l0 -0.34375l3.5 0l4.484375 9.671875l4.40625 -9.671875l3.5 0l0 0.34375l-0.4375 0q-0.796875 0 -1.125 0.46875q-0.1875 0.296875 -0.1875 1.328125l0 8.078125q0 1.140625 0.25 1.421875q0.34375 0.375 1.0625 0.375l0.4375 0l0 0.34375l-5.25 0l0 -0.34375l0.4375 0q0.78125 0 1.109375 -0.46875q0.203125 -0.296875 0.203125 -1.328125l0 -8.25l-4.765625 10.390625l-0.296875 0zm14.260269 -1.203125q-1.28125 1.0 -1.609375 1.15625q-0.5 0.21875 -1.046875 0.21875q-0.875 0 -1.4375 -0.59375q-0.546875 -0.59375 -0.546875 -1.5625q0 -0.609375 0.265625 -1.046875q0.375 -0.625 1.296875 -1.171875q0.921875 -0.546875 3.078125 -1.328125l0 -0.328125q0 -1.25 -0.40625 -1.703125q-0.390625 -0.46875 -1.140625 -0.46875q-0.578125 0 -0.921875 0.3125q-0.34375 0.296875 -0.34375 0.703125l0.015625 0.53125q0 0.421875 -0.21875 0.65625q-0.203125 0.21875 -0.546875 0.21875q-0.34375 0 -0.5625 -0.234375q-0.203125 -0.234375 -0.203125 -0.65625q0 -0.78125 0.796875 -1.4375q0.8125 -0.65625 2.25 -0.65625q1.109375 0 1.828125 0.375q0.53125 0.28125 0.796875 0.890625q0.15625 0.390625 0.15625 1.59375l0 2.84375q0 1.1875 0.046875 1.453125q0.046875 0.265625 0.140625 0.359375q0.109375 0.09375 0.25 0.09375q0.140625 0 0.25 -0.0625q0.203125 -0.125 0.75 -0.671875l0 0.515625q-1.03125 1.359375 -1.953125 1.359375q-0.453125 0 -0.71875 -0.296875q-0.265625 -0.3125 -0.265625 -1.0625zm0 -0.59375l0 -3.171875q-1.375 0.546875 -1.78125 0.765625q-0.71875 0.40625 -1.03125 0.84375q-0.296875 0.4375 -0.296875 0.953125q0 0.65625 0.390625 1.09375q0.390625 0.421875 0.890625 0.421875q0.703125 0 1.828125 -0.90625zm5.999283 -6.796875l0 1.875q1.046875 -1.875 2.140625 -1.875q0.5 0 0.828125 0.3125q0.328125 0.296875 0.328125 0.703125q0 0.359375 -0.234375 0.609375q-0.234375 0.234375 -0.5625 0.234375q-0.328125 0 -0.71875 -0.3125q-0.390625 -0.3125 -0.578125 -0.3125q-0.171875 0 -0.359375 0.1875q-0.40625 0.359375 -0.84375 1.21875l0 4.0q0 0.703125 0.171875 1.046875q0.109375 0.25 0.40625 0.421875q0.3125 0.15625 0.875 0.15625l0 0.328125l-4.28125 0l0 -0.328125q0.640625 0 0.953125 -0.203125q0.234375 -0.140625 0.3125 -0.46875q0.046875 -0.140625 0.046875 -0.875l0 -3.234375q0 -1.453125 -0.0625 -1.734375q-0.046875 -0.28125 -0.21875 -0.40625q-0.15625 -0.125 -0.390625 -0.125q-0.28125 0 -0.640625 0.140625l-0.078125 -0.328125l2.515625 -1.03125l0.390625 0zm5.884552 -4.359375q0.390625 0 0.65625 0.265625q0.265625 0.265625 0.265625 0.65625q0 0.375 -0.265625 0.65625q-0.265625 0.265625 -0.65625 0.265625q-0.375 0 -0.65625 -0.265625q-0.265625 -0.28125 -0.265625 -0.65625q0 -0.390625 0.265625 -0.65625q0.265625 -0.265625 0.65625 -0.265625zm0.765625 4.359375l0 6.703125q0 0.78125 0.109375 1.046875q0.109375 0.265625 0.328125 0.390625q0.234375 0.125 0.828125 0.125l0 0.328125l-4.0625 0l0 -0.328125q0.609375 0 0.8125 -0.109375q0.21875 -0.125 0.34375 -0.390625q0.125 -0.28125 0.125 -1.0625l0 -3.203125q0 -1.359375 -0.078125 -1.765625q-0.078125 -0.296875 -0.21875 -0.40625q-0.125 -0.109375 -0.359375 -0.109375q-0.265625 0 -0.625 0.140625l-0.125 -0.328125l2.515625 -1.03125l0.40625 0zm7.027054 7.390625q-1.28125 1.0 -1.609375 1.15625q-0.5 0.21875 -1.046875 0.21875q-0.875 0 -1.4375 -0.59375q-0.546875 -0.59375 -0.546875 -1.5625q0 -0.609375 0.265625 -1.046875q0.375 -0.625 1.296875 -1.171875q0.921875 -0.546875 3.078125 -1.328125l0 -0.328125q0 -1.25 -0.40625 -1.703125q-0.390625 -0.46875 -1.140625 -0.46875q-0.578125 0 -0.921875 0.3125q-0.34375 0.296875 -0.34375 0.703125l0.015625 0.53125q0 0.421875 -0.21875 0.65625q-0.203125 0.21875 -0.546875 0.21875q-0.34375 0 -0.5625 -0.234375q-0.203125 -0.234375 -0.203125 -0.65625q0 -0.78125 0.796875 -1.4375q0.8125 -0.65625 2.25 -0.65625q1.109375 0 1.828125 0.375q0.53125 0.28125 0.796875 0.890625q0.15625 0.390625 0.15625 1.59375l0 2.84375q0 1.1875 0.046875 1.453125q0.046875 0.265625 0.140625 0.359375q0.109375 0.09375 0.25 0.09375q0.140625 0 0.25 -0.0625q0.203125 -0.125 0.75 -0.671875l0 0.515625q-1.03125 1.359375 -1.953125 1.359375q-0.453125 0 -0.71875 -0.296875q-0.265625 -0.3125 -0.265625 -1.0625zm0 -0.59375l0 -3.171875q-1.375 0.546875 -1.78125 0.765625q-0.71875 0.40625 -1.03125 0.84375q-0.296875 0.4375 -0.296875 0.953125q0 0.65625 0.390625 1.09375q0.390625 0.421875 0.890625 0.421875q0.703125 0 1.828125 -0.90625zm5.9836426 -5.03125q1.46875 -1.765625 2.796875 -1.765625q0.6875 0 1.171875 0.34375q0.5 0.34375 0.78125 1.125q0.203125 0.546875 0.203125 1.671875l0 3.5625q0 0.796875 0.125 1.078125q0.109375 0.234375 0.328125 0.359375q0.21875 0.125 0.828125 0.125l0 0.328125l-4.125 0l0 -0.328125l0.171875 0q0.578125 0 0.8125 -0.171875q0.234375 -0.1875 0.328125 -0.53125q0.03125 -0.140625 0.03125 -0.859375l0 -3.40625q0 -1.140625 -0.296875 -1.65625q-0.296875 -0.515625 -1.0 -0.515625q-1.078125 0 -2.15625 1.1875l0 4.390625q0 0.859375 0.09375 1.046875q0.140625 0.265625 0.359375 0.390625q0.21875 0.125 0.90625 0.125l0 0.328125l-4.1249847 0l0 -0.328125l0.171875 0q0.640625 0 0.859375 -0.3125q0.234375 -0.328125 0.234375 -1.25l0 -3.09375q0 -1.5 -0.078125 -1.828125q-0.0625 -0.328125 -0.203125 -0.4375q-0.140625 -0.125 -0.375 -0.125q-0.265625 0 -0.609375 0.140625l-0.140625 -0.328125l2.515625 -1.03125l0.39060974 0l0 1.765625zm18.617188 6.828125l-4.78125 -10.390625l0 8.25q0 1.140625 0.25 1.421875q0.328125 0.375 1.0625 0.375l0.4375 0l0 0.34375l-4.296875 0l0 -0.34375l0.4375 0q0.78125 0 1.109375 -0.46875q0.203125 -0.296875 0.203125 -1.328125l0 -8.078125q0 -0.8125 -0.1875 -1.171875q-0.125 -0.265625 -0.46875 -0.4375q-0.34375 -0.1875 -1.09375 -0.1875l0 -0.34375l3.5 0l4.484375 9.671875l4.40625 -9.671875l3.5 0l0 0.34375l-0.4375 0q-0.796875 0 -1.125 0.46875q-0.1875 0.296875 -0.1875 1.328125l0 8.078125q0 1.140625 0.25 1.421875q0.34375 0.375 1.0625 0.375l0.4375 0l0 0.34375l-5.25 0l0 -0.34375l0.4375 0q0.78125 0 1.109375 -0.46875q0.203125 -0.296875 0.203125 -1.328125l0 -8.25l-4.765625 10.390625l-0.296875 0zm19.74466 -12.359375l0.140625 2.90625l-0.359375 0q-0.09375 -0.765625 -0.265625 -1.09375q-0.28125 -0.53125 -0.75 -0.78125q-0.46875 -0.25 -1.234375 -0.25l-1.734375 0l0 9.4375q0 1.140625 0.234375 1.421875q0.34375 0.375 1.0625 0.375l0.4375 0l0 0.34375l-5.234375 0l0 -0.34375l0.4375 0q0.78125 0 1.109375 -0.46875q0.203125 -0.296875 0.203125 -1.328125l0 -9.4375l-1.484375 0q-0.875 0 -1.234375 0.125q-0.46875 0.171875 -0.8125 0.671875q-0.34375 0.484375 -0.40625 1.328125l-0.34375 0l0.140625 -2.90625l10.09375 0z" fill-rule="nonzero"/><path fill="#efefef" d="m179.59055 28.631233l0 0c0 4.133438 32.55278 7.484253 72.708664 7.484253c40.1559 0 72.708664 -3.3508148 72.708664 -7.484253l0 44.90551c0 4.133438 -32.552765 7.484253 -72.708664 7.484253c-40.155884 0 -72.708664 -3.3508148 -72.708664 -7.484253z" fill-rule="evenodd"/><path fill="#f5f5f5" d="m179.59055 28.631233l0 0c0 -4.133438 32.55278 -7.484251 72.708664 -7.484251c40.1559 0 72.708664 3.350813 72.708664 7.484251l0 0c0 4.133438 -32.552765 7.484253 -72.708664 7.484253c-40.155884 0 -72.708664 -3.3508148 -72.708664 -7.484253z" fill-rule="evenodd"/><path fill="#000000" fill-opacity="0.0" d="m325.00787 28.631233l0 0c0 4.133438 -32.552765 7.484253 -72.708664 7.484253c-40.155884 0 -72.708664 -3.3508148 -72.708664 -7.484253l0 0c0 -4.133438 32.55278 -7.484251 72.708664 -7.484251c40.1559 0 72.708664 3.350813 72.708664 7.484251l0 44.90551c0 4.133438 -32.552765 7.484253 -72.708664 7.484253c-40.155884 0 -72.708664 -3.3508148 -72.708664 -7.484253l0 -44.90551" fill-rule="evenodd"/><path stroke="#000000" stroke-width="1.0" stroke-linejoin="round" stroke-linecap="butt" d="m325.00787 28.631233l0 0c0 4.133438 -32.552765 7.484253 -72.708664 7.484253c-40.155884 0 -72.708664 -3.3508148 -72.708664 -7.484253l0 0c0 -4.133438 32.55278 -7.484251 72.708664 -7.484251c40.1559 0 72.708664 3.350813 72.708664 7.484251l0 44.90551c0 4.133438 -32.552765 7.484253 -72.708664 7.484253c-40.155884 0 -72.708664 -3.3508148 -72.708664 -7.484253l0 -44.90551" fill-rule="evenodd"/><path fill="#000000" fill-opacity="0.0" d="m214.37927 34.979214l86.20471 0l0 42.015743l-86.20471 0z" fill-rule="evenodd"/><path fill="#000000" d="m223.69177 61.89921l0 -0.34375l0.46875 0q0.78125 0 1.109375 -0.5q0.203125 -0.296875 0.203125 -1.34375l0 -7.984375q0 -1.15625 -0.25 -1.4375q-0.359375 -0.40625 -1.0625 -0.40625l-0.46875 0l0 -0.34375l5.03125 0q2.765625 0 4.203125 0.640625q1.453125 0.625 2.328125 2.09375q0.890625 1.46875 0.890625 3.390625q0 2.578125 -1.5625 4.296875q-1.765625 1.9375 -5.359375 1.9375l-5.53125 0zm3.53125 -0.890625q1.15625 0.25 1.9375 0.25q2.109375 0 3.5 -1.484375q1.40625 -1.484375 1.40625 -4.03125q0 -2.546875 -1.40625 -4.015625q-1.390625 -1.484375 -3.5625 -1.484375q-0.828125 0 -1.875 0.265625l0 10.5zm14.941696 -0.3125q-1.28125 1.0 -1.609375 1.15625q-0.5 0.21875 -1.046875 0.21875q-0.875 0 -1.4375 -0.59375q-0.546875 -0.59375 -0.546875 -1.5625q0 -0.609375 0.265625 -1.046875q0.375 -0.625 1.296875 -1.171875q0.921875 -0.546875 3.078125 -1.328125l0 -0.328125q0 -1.25 -0.40625 -1.703125q-0.390625 -0.46875 -1.140625 -0.46875q-0.578125 0 -0.921875 0.3125q-0.34375 0.296875 -0.34375 0.703125l0.015625 0.53125q0 0.421875 -0.21875 0.65625q-0.203125 0.21875 -0.546875 0.21875q-0.34375 0 -0.5625 -0.234375q-0.203125 -0.234375 -0.203125 -0.65625q0 -0.78125 0.796875 -1.4375q0.8125 -0.65625 2.25 -0.65625q1.109375 0 1.828125 0.375q0.53125 0.28125 0.796875 0.890625q0.15625 0.390625 0.15625 1.59375l0 2.84375q0 1.1875 0.046875 1.453125q0.046875 0.265625 0.140625 0.359375q0.109375 0.09375 0.25 0.09375q0.140625 0 0.25 -0.0625q0.203125 -0.125 0.75 -0.671875l0 0.515625q-1.03125 1.359375 -1.953125 1.359375q-0.453125 0 -0.71875 -0.296875q-0.265625 -0.3125 -0.265625 -1.0625zm0 -0.59375l0 -3.171875q-1.375 0.546875 -1.78125 0.765625q-0.71875 0.40625 -1.03125 0.84375q-0.296875 0.4375 -0.296875 0.953125q0 0.65625 0.390625 1.09375q0.390625 0.421875 0.890625 0.421875q0.703125 0 1.828125 -0.90625zm5.968033 -9.296875l0 2.75l1.953125 0l0 0.640625l-1.953125 0l0 5.40625q0 0.8125 0.234375 1.09375q0.234375 0.28125 0.59375 0.28125q0.3125 0 0.59375 -0.1875q0.28125 -0.1875 0.4375 -0.546875l0.34375 0q-0.3125 0.890625 -0.90625 1.34375q-0.578125 0.453125 -1.1875 0.453125q-0.421875 0 -0.828125 -0.234375q-0.390625 -0.234375 -0.59375 -0.65625q-0.1875 -0.4375 -0.1875 -1.34375l0 -5.609375l-1.3125 0l0 -0.296875q0.5 -0.203125 1.015625 -0.6875q0.53125 -0.484375 0.9375 -1.125q0.203125 -0.359375 0.578125 -1.28125l0.28125 0zm7.495804 9.890625q-1.28125 1.0 -1.609375 1.15625q-0.5 0.21875 -1.046875 0.21875q-0.875 0 -1.4375 -0.59375q-0.546875 -0.59375 -0.546875 -1.5625q0 -0.609375 0.265625 -1.046875q0.375 -0.625 1.296875 -1.171875q0.921875 -0.546875 3.078125 -1.328125l0 -0.328125q0 -1.25 -0.40625 -1.703125q-0.390625 -0.46875 -1.140625 -0.46875q-0.578125 0 -0.921875 0.3125q-0.34375 0.296875 -0.34375 0.703125l0.015625 0.53125q0 0.421875 -0.21875 0.65625q-0.203125 0.21875 -0.546875 0.21875q-0.34375 0 -0.5625 -0.234375q-0.203125 -0.234375 -0.203125 -0.65625q0 -0.78125 0.796875 -1.4375q0.8125 -0.65625 2.25 -0.65625q1.109375 0 1.8281097 0.375q0.53125 0.28125 0.796875 0.890625q0.15625 0.390625 0.15625 1.59375l0 2.84375q0 1.1875 0.046875 1.453125q0.046875 0.265625 0.140625 0.359375q0.109375 0.09375 0.25 0.09375q0.140625 0 0.25 -0.0625q0.203125 -0.125 0.75 -0.671875l0 0.515625q-1.03125 1.359375 -1.953125 1.359375q-0.453125 0 -0.71873474 -0.296875q-0.265625 -0.3125 -0.265625 -1.0625zm0 -0.59375l0 -3.171875q-1.375 0.546875 -1.78125 0.765625q-0.71875 0.40625 -1.03125 0.84375q-0.296875 0.4375 -0.296875 0.953125q0 0.65625 0.390625 1.09375q0.390625 0.421875 0.890625 0.421875q0.703125 0 1.828125 -0.90625zm8.936783 -6.796875l0 2.84375l-0.296875 0q-0.34375 -1.34375 -0.890625 -1.8125q-0.53125 -0.484375 -1.375 -0.484375q-0.640625 0 -1.03125 0.34375q-0.390625 0.328125 -0.390625 0.734375q0 0.515625 0.296875 0.875q0.28125 0.375 1.140625 0.796875l1.328125 0.640625q1.859375 0.90625 1.859375 2.375q0 1.140625 -0.875 1.84375q-0.859375 0.6875 -1.921875 0.6875q-0.765625 0 -1.75 -0.265625q-0.296875 -0.09375 -0.484375 -0.09375q-0.21875 0 -0.328125 0.234375l-0.296875 0l0 -2.96875l0.296875 0q0.25 1.265625 0.96875 1.921875q0.71875 0.640625 1.609375 0.640625q0.640625 0 1.03125 -0.359375q0.390625 -0.375 0.390625 -0.90625q0 -0.625 -0.4375 -1.046875q-0.4375 -0.4375 -1.765625 -1.09375q-1.3125 -0.65625 -1.71875 -1.171875q-0.421875 -0.53125 -0.421875 -1.3125q0 -1.03125 0.703125 -1.71875q0.71875 -0.703125 1.828125 -0.703125q0.5 0 1.203125 0.21875q0.453125 0.125 0.609375 0.125q0.15625 0 0.234375 -0.0625q0.078125 -0.0625 0.1875 -0.28125l0.296875 0zm3.275879 3.390625q0 1.859375 0.90625 2.921875q0.90625 1.046875 2.140625 1.046875q0.8125 0 1.421875 -0.4375q0.609375 -0.453125 1.015625 -1.546875l0.28125 0.171875q-0.1875 1.25 -1.109375 2.28125q-0.921875 1.015625 -2.296875 1.015625q-1.515625 0 -2.59375 -1.171875q-1.0625 -1.171875 -1.0625 -3.140625q0 -2.140625 1.09375 -3.328125q1.109375 -1.203125 2.765625 -1.203125q1.40625 0 2.296875 0.921875q0.90625 0.921875 0.90625 2.46875l-5.765625 0zm0 -0.53125l3.859375 0q-0.046875 -0.796875 -0.1875 -1.125q-0.234375 -0.515625 -0.6875 -0.796875q-0.4375 -0.296875 -0.9375 -0.296875q-0.75 0 -1.34375 0.59375q-0.59375 0.578125 -0.703125 1.625zm9.296173 -5.359375l0 2.75l1.953125 0l0 0.640625l-1.953125 0l0 5.40625q0 0.8125 0.234375 1.09375q0.234375 0.28125 0.59375 0.28125q0.3125 0 0.59375 -0.1875q0.28125 -0.1875 0.4375 -0.546875l0.34375 0q-0.3125 0.890625 -0.90625 1.34375q-0.578125 0.453125 -1.1875 0.453125q-0.421875 0 -0.828125 -0.234375q-0.390625 -0.234375 -0.59375 -0.65625q-0.1875 -0.4375 -0.1875 -1.34375l0 -5.609375l-1.3125 0l0 -0.296875q0.5 -0.203125 1.015625 -0.6875q0.53125 -0.484375 0.9375 -1.125q0.203125 -0.359375 0.578125 -1.28125l0.28125 0z" fill-rule="nonzero"/><path fill="#fff2cc" d="m185.32451 219.74152l0 -20.661407l132.59843 0l0 20.661407z" fill-rule="evenodd"/><path stroke="#000000" stroke-width="1.0" stroke-linejoin="round" stroke-linecap="butt" d="m185.32451 219.74152l0 -20.661407l132.59843 0l0 20.661407z" fill-rule="evenodd"/><path fill="#fff2cc" d="m185.32451 182.04861l0 -20.661423l132.59843 0l0 20.661423z" fill-rule="evenodd"/><path stroke="#000000" stroke-width="1.0" stroke-linejoin="round" stroke-linecap="butt" d="m185.32451 182.04861l0 -20.661423l132.59843 0l0 20.661423z" fill-rule="evenodd"/><path fill="#000000" fill-opacity="0.0" d="m201.20514 192.19696l132.94489 0l0 28.881882l-132.94489 0z" fill-rule="evenodd"/><path fill="#000000" d="m212.67389 208.9982l0 2.3125q0 0.75 0.15625 0.9375q0.21875 0.25 0.671875 0.25l0.3125 0l0 0.21875l-3.40625 0l0 -0.21875l0.296875 0q0.5 0 0.71875 -0.328125q0.125 -0.1875 0.125 -0.859375l0 -5.140625q0 -0.75 -0.171875 -0.921875q-0.21875 -0.265625 -0.671875 -0.265625l-0.296875 0l0 -0.21875l2.90625 0q1.0625 0 1.671875 0.234375q0.625 0.21875 1.046875 0.734375q0.421875 0.515625 0.421875 1.234375q0 0.96875 -0.640625 1.578125q-0.640625 0.609375 -1.8125 0.609375q-0.28125 0 -0.625 -0.03125q-0.328125 -0.046875 -0.703125 -0.125zm0 -0.34375q0.296875 0.0625 0.53125 0.09375q0.25 0.03125 0.421875 0.03125q0.609375 0 1.046875 -0.46875q0.453125 -0.46875 0.453125 -1.21875q0 -0.515625 -0.21875 -0.953125q-0.203125 -0.453125 -0.59375 -0.671875q-0.390625 -0.21875 -0.875 -0.21875q-0.296875 0 -0.765625 0.109375l0 3.296875zm6.158203 -1.46875l0 1.21875q0.671875 -1.21875 1.375 -1.21875q0.328125 0 0.53125 0.203125q0.21875 0.1875 0.21875 0.453125q0 0.234375 -0.15625 0.390625q-0.15625 0.15625 -0.359375 0.15625q-0.203125 0 -0.46875 -0.203125q-0.25 -0.203125 -0.375 -0.203125q-0.109375 0 -0.234375 0.109375q-0.25 0.25 -0.53125 0.796875l0 2.578125q0 0.4375 0.109375 0.671875q0.078125 0.15625 0.265625 0.265625q0.1875 0.09375 0.5625 0.09375l0 0.21875l-2.75 0l0 -0.21875q0.40625 0 0.609375 -0.125q0.140625 -0.09375 0.203125 -0.296875q0.03125 -0.09375 0.03125 -0.5625l0 -2.078125q0 -0.9375 -0.046875 -1.109375q-0.03125 -0.1875 -0.140625 -0.265625q-0.09375 -0.09375 -0.25 -0.09375q-0.1875 0 -0.40625 0.09375l-0.0625 -0.21875l1.625 -0.65625l0.25 0zm5.0429688 0q1.21875 0 1.953125 0.9375q0.625 0.78125 0.625 1.8125q0 0.71875 -0.34375 1.453125q-0.34375 0.734375 -0.953125 1.125q-0.59375 0.375 -1.34375 0.375q-1.21875 0 -1.921875 -0.96875q-0.609375 -0.828125 -0.609375 -1.828125q0 -0.75 0.359375 -1.46875q0.375 -0.734375 0.96875 -1.078125q0.59375 -0.359375 1.265625 -0.359375zm-0.1875 0.390625q-0.296875 0 -0.625 0.1875q-0.3125 0.171875 -0.5 0.640625q-0.1875 0.46875 -0.1875 1.1875q0 1.171875 0.453125 2.03125q0.46875 0.84375 1.234375 0.84375q0.5625 0 0.9375 -0.46875q0.375 -0.46875 0.375 -1.609375q0 -1.4375 -0.625 -2.25q-0.40625 -0.5625 -1.0625 -0.5625zm4.921875 -3.203125q0.25 0 0.421875 0.1875q0.1875 0.171875 0.1875 0.421875q0 0.25 -0.1875 0.421875q-0.171875 0.171875 -0.421875 0.171875q-0.25 0 -0.421875 -0.171875q-0.171875 -0.171875 -0.171875 -0.421875q0 -0.25 0.171875 -0.421875q0.171875 -0.1875 0.421875 -0.1875zm0.5 2.8125l0 5.40625q0 1.375 -0.59375 2.046875q-0.578125 0.671875 -1.515625 0.671875q-0.53125 0 -0.78125 -0.203125q-0.265625 -0.1875 -0.265625 -0.390625q0 -0.203125 0.140625 -0.359375q0.140625 -0.140625 0.34375 -0.140625q0.15625 0 0.3125 0.078125q0.09375 0.046875 0.375 0.296875q0.296875 0.25 0.484375 0.25q0.140625 0 0.265625 -0.109375q0.140625 -0.109375 0.203125 -0.359375q0.0625 -0.25 0.0625 -1.109375l0 -3.8125q0 -0.890625 -0.046875 -1.140625q-0.046875 -0.1875 -0.140625 -0.265625q-0.078125 -0.078125 -0.234375 -0.078125q-0.15625 0 -0.390625 0.09375l-0.078125 -0.21875l1.609375 -0.65625l0.25 0zm2.3808594 2.1875q-0.015625 1.1875 0.578125 1.875q0.578125 0.671875 1.375 0.671875q0.53125 0 0.921875 -0.28125q0.390625 -0.296875 0.65625 -1.0l0.171875 0.125q-0.125 0.796875 -0.71875 1.46875q-0.578125 0.65625 -1.46875 0.65625q-0.96875 0 -1.65625 -0.75q-0.6875 -0.765625 -0.6875 -2.03125q0 -1.375 0.703125 -2.140625q0.703125 -0.78125 1.765625 -0.78125q0.90625 0 1.484375 0.59375q0.578125 0.59375 0.578125 1.59375l-3.703125 0zm0 -0.34375l2.484375 0q-0.03125 -0.515625 -0.125 -0.71875q-0.140625 -0.328125 -0.4375 -0.515625q-0.296875 -0.1875 -0.609375 -0.1875q-0.484375 0 -0.875 0.375q-0.375 0.375 -0.4375 1.046875zm8.982422 1.640625q-0.21875 1.0625 -0.859375 1.640625q-0.625 0.578125 -1.390625 0.578125q-0.921875 0 -1.609375 -0.765625q-0.671875 -0.78125 -0.671875 -2.078125q0 -1.265625 0.75 -2.0625q0.765625 -0.796875 1.8125 -0.796875q0.796875 0 1.296875 0.421875q0.515625 0.421875 0.515625 0.875q0 0.21875 -0.140625 0.359375q-0.140625 0.140625 -0.40625 0.140625q-0.34375 0 -0.515625 -0.234375q-0.109375 -0.109375 -0.140625 -0.453125q-0.03125 -0.359375 -0.234375 -0.53125q-0.203125 -0.1875 -0.5625 -0.1875q-0.59375 0 -0.953125 0.4375q-0.46875 0.578125 -0.46875 1.515625q0 0.96875 0.46875 1.703125q0.46875 0.734375 1.28125 0.734375q0.578125 0 1.03125 -0.390625q0.3125 -0.265625 0.625 -0.984375l0.171875 0.078125zm2.3261719 -5.078125l0 1.75l1.25 0l0 0.421875l-1.25 0l0 3.46875q0 0.53125 0.140625 0.71875q0.15625 0.171875 0.390625 0.171875q0.1875 0 0.375 -0.109375q0.1875 -0.125 0.28125 -0.359375l0.234375 0q-0.21875 0.5625 -0.59375 0.859375q-0.375 0.296875 -0.765625 0.296875q-0.265625 0 -0.53125 -0.15625q-0.25 -0.15625 -0.375 -0.421875q-0.125 -0.28125 -0.125 -0.859375l0 -3.609375l-0.84375 0l0 -0.203125q0.3125 -0.125 0.640625 -0.421875q0.34375 -0.3125 0.609375 -0.734375q0.140625 -0.234375 0.375 -0.8125l0.1875 0zm3.1308594 -1.203125q0.25 0 0.421875 0.171875q0.171875 0.171875 0.171875 0.421875q0 0.234375 -0.171875 0.421875q-0.171875 0.171875 -0.421875 0.171875q-0.234375 0 -0.421875 -0.171875q-0.171875 -0.1875 -0.171875 -0.421875q0 -0.25 0.171875 -0.421875q0.171875 -0.171875 0.421875 -0.171875zm0.5 2.796875l0 4.3125q0 0.515625 0.0625 0.6875q0.078125 0.15625 0.21875 0.234375q0.140625 0.078125 0.53125 0.078125l0 0.21875l-2.609375 0l0 -0.21875q0.390625 0 0.515625 -0.0625q0.140625 -0.078125 0.21875 -0.25q0.078125 -0.1875 0.078125 -0.6875l0 -2.0625q0 -0.875 -0.046875 -1.125q-0.046875 -0.1875 -0.140625 -0.265625q-0.078125 -0.078125 -0.234375 -0.078125q-0.15625 0 -0.390625 0.09375l-0.078125 -0.21875l1.609375 -0.65625l0.265625 0zm4.0996094 0q1.21875 0 1.953125 0.9375q0.625 0.78125 0.625 1.8125q0 0.71875 -0.34375 1.453125q-0.34375 0.734375 -0.953125 1.125q-0.59375 0.375 -1.34375 0.375q-1.21875 0 -1.921875 -0.96875q-0.609375 -0.828125 -0.609375 -1.828125q0 -0.75 0.359375 -1.46875q0.375 -0.734375 0.96875 -1.078125q0.59375 -0.359375 1.265625 -0.359375zm-0.1875 0.390625q-0.296875 0 -0.625 0.1875q-0.3125 0.171875 -0.5 0.640625q-0.1875 0.46875 -0.1875 1.1875q0 1.171875 0.453125 2.03125q0.46875 0.84375 1.234375 0.84375q0.5625 0 0.9375 -0.46875q0.375 -0.46875 0.375 -1.609375q0 -1.4375 -0.625 -2.25q-0.40625 -0.5625 -1.0625 -0.5625zm5.125 0.75q0.953125 -1.140625 1.796875 -1.140625q0.4375 0 0.75 0.21875q0.328125 0.21875 0.515625 0.734375q0.125 0.34375 0.125 1.078125l0 2.28125q0 0.515625 0.078125 0.703125q0.078125 0.140625 0.21875 0.21875q0.140625 0.078125 0.53125 0.078125l0 0.21875l-2.65625 0l0 -0.21875l0.109375 0q0.375 0 0.515625 -0.109375q0.15625 -0.109375 0.21875 -0.328125q0.015625 -0.09375 0.015625 -0.5625l0 -2.1875q0 -0.734375 -0.1875 -1.0625q-0.1875 -0.34375 -0.640625 -0.34375q-0.703125 0 -1.390625 0.765625l0 2.828125q0 0.546875 0.0625 0.671875q0.09375 0.171875 0.234375 0.25q0.140625 0.078125 0.578125 0.078125l0 0.21875l-2.65625 0l0 -0.21875l0.125 0q0.40625 0 0.546875 -0.203125q0.140625 -0.203125 0.140625 -0.796875l0 -1.984375q0 -0.96875 -0.046875 -1.171875q-0.03125 -0.21875 -0.125 -0.296875q-0.09375 -0.078125 -0.25 -0.078125q-0.15625 0 -0.390625 0.09375l-0.078125 -0.21875l1.609375 -0.65625l0.25 0l0 1.140625zm13.9375 2.1875l0.203125 0.046875l-0.6875 2.15625l-6.15625 0l0 -0.21875l0.3125 0q0.5 0 0.71875 -0.328125q0.125 -0.1875 0.125 -0.859375l0 -5.140625q0 -0.734375 -0.171875 -0.921875q-0.234375 -0.265625 -0.671875 -0.265625l-0.3125 0l0 -0.21875l3.609375 0l0 0.21875q-0.640625 0 -0.890625 0.125q-0.25 0.125 -0.34375 0.3125q-0.09375 0.1875 -0.09375 0.890625l0 5.0q0 0.484375 0.09375 0.65625q0.0625 0.125 0.203125 0.1875q0.15625 0.0625 0.921875 0.0625l0.578125 0q0.921875 0 1.28125 -0.140625q0.375 -0.140625 0.671875 -0.46875q0.3125 -0.34375 0.609375 -1.09375zm3.8769531 1.421875q-0.828125 0.640625 -1.046875 0.75q-0.3125 0.140625 -0.671875 0.140625q-0.546875 0 -0.921875 -0.375q-0.359375 -0.390625 -0.359375 -1.0q0 -0.40625 0.1875 -0.6875q0.234375 -0.390625 0.828125 -0.734375q0.59375 -0.359375 1.984375 -0.875l0 -0.203125q0 -0.8125 -0.265625 -1.109375q-0.25 -0.296875 -0.734375 -0.296875q-0.375 0 -0.59375 0.203125q-0.21875 0.203125 -0.21875 0.453125l0.015625 0.34375q0 0.265625 -0.140625 0.421875q-0.140625 0.140625 -0.359375 0.140625q-0.21875 0 -0.359375 -0.15625q-0.125 -0.15625 -0.125 -0.40625q0 -0.515625 0.515625 -0.9375q0.515625 -0.421875 1.4375 -0.421875q0.71875 0 1.171875 0.25q0.34375 0.171875 0.515625 0.5625q0.109375 0.25 0.109375 1.03125l0 1.828125q0 0.765625 0.015625 0.9375q0.03125 0.171875 0.09375 0.234375q0.078125 0.046875 0.171875 0.046875q0.09375 0 0.15625 -0.03125q0.125 -0.078125 0.46875 -0.4375l0 0.328125q-0.65625 0.890625 -1.25 0.890625q-0.28125 0 -0.453125 -0.203125q-0.171875 -0.203125 -0.171875 -0.6875zm0 -0.375l0 -2.046875q-0.890625 0.359375 -1.140625 0.5q-0.46875 0.265625 -0.671875 0.546875q-0.203125 0.28125 -0.203125 0.609375q0 0.421875 0.25 0.703125q0.265625 0.28125 0.59375 0.28125q0.4375 0 1.171875 -0.59375zm1.9824219 -4.21875l2.5 0l0 0.21875l-0.125 0q-0.265625 0 -0.40625 0.125q-0.125 0.109375 -0.125 0.28125q0 0.21875 0.1875 0.625l1.3125 2.71875l1.203125 -2.96875q0.09375 -0.25 0.09375 -0.484375q0 -0.09375 -0.03125 -0.15625q-0.046875 -0.0625 -0.15625 -0.09375q-0.09375 -0.046875 -0.34375 -0.046875l0 -0.21875l1.75 0l0 0.21875q-0.21875 0.03125 -0.34375 0.109375q-0.109375 0.0625 -0.25 0.25q-0.0625 0.078125 -0.203125 0.453125l-2.1875 5.359375q-0.3125 0.78125 -0.828125 1.171875q-0.515625 0.40625 -0.984375 0.40625q-0.34375 0 -0.578125 -0.203125q-0.21875 -0.203125 -0.21875 -0.453125q0 -0.25 0.15625 -0.40625q0.171875 -0.140625 0.453125 -0.140625q0.1875 0 0.53125 0.125q0.234375 0.09375 0.28125 0.09375q0.1875 0 0.390625 -0.1875q0.203125 -0.171875 0.421875 -0.703125l0.375 -0.9375l-1.921875 -4.046875q-0.09375 -0.171875 -0.28125 -0.453125q-0.15625 -0.203125 -0.25 -0.265625q-0.125 -0.09375 -0.421875 -0.171875l0 -0.21875zm7.203125 2.03125q-0.015625 1.1875 0.578125 1.875q0.578125 0.671875 1.375 0.671875q0.53125 0 0.921875 -0.28125q0.390625 -0.296875 0.65625 -1.0l0.171875 0.125q-0.125 0.796875 -0.71875 1.46875q-0.578125 0.65625 -1.46875 0.65625q-0.96875 0 -1.65625 -0.75q-0.6875 -0.765625 -0.6875 -2.03125q0 -1.375 0.703125 -2.140625q0.703125 -0.78125 1.765625 -0.78125q0.90625 0 1.484375 0.59375q0.578125 0.59375 0.578125 1.59375l-3.703125 0zm0 -0.34375l2.484375 0q-0.03125 -0.515625 -0.125 -0.71875q-0.140625 -0.328125 -0.4375 -0.515625q-0.296875 -0.1875 -0.609375 -0.1875q-0.484375 0 -0.875 0.375q-0.375 0.375 -0.4375 1.046875zm5.998047 -1.84375l0 1.21875q0.671875 -1.21875 1.375 -1.21875q0.328125 0 0.53125 0.203125q0.21875 0.1875 0.21875 0.453125q0 0.234375 -0.15625 0.390625q-0.15625 0.15625 -0.359375 0.15625q-0.203125 0 -0.46875 -0.203125q-0.25 -0.203125 -0.375 -0.203125q-0.109375 0 -0.234375 0.109375q-0.25 0.25 -0.53125 0.796875l0 2.578125q0 0.4375 0.109375 0.671875q0.078125 0.15625 0.265625 0.265625q0.1875 0.09375 0.5625 0.09375l0 0.21875l-2.75 0l0 -0.21875q0.40625 0 0.609375 -0.125q0.140625 -0.09375 0.203125 -0.296875q0.03125 -0.09375 0.03125 -0.5625l0 -2.078125q0 -0.9375 -0.046875 -1.109375q-0.03125 -0.1875 -0.140625 -0.265625q-0.09375 -0.09375 -0.25 -0.09375q-0.1875 0 -0.40625 0.09375l-0.0625 -0.21875l1.625 -0.65625l0.25 0z" fill-rule="nonzero"/><path fill="#cfe2f3" d="m185.63475 128.17722l0 -20.661415l132.59843 0l0 20.661415z" fill-rule="evenodd"/><path stroke="#000000" stroke-width="1.0" stroke-linejoin="round" stroke-linecap="butt" d="m185.63475 128.17722l0 -20.661415l132.59843 0l0 20.661415z" fill-rule="evenodd"/><path fill="#000000" fill-opacity="0.0" d="m217.1938 101.27821l81.79527 0l0 28.881897l-81.79527 0z" fill-rule="evenodd"/><path fill="#000000" d="m233.1313 113.84509l0.09375 1.875l-0.21875 0q-0.0625 -0.5 -0.171875 -0.703125q-0.1875 -0.34375 -0.5 -0.5q-0.296875 -0.171875 -0.78125 -0.171875l-1.125 0l0 6.078125q0 0.734375 0.15625 0.90625q0.234375 0.25 0.6875 0.25l0.28125 0l0 0.21875l-3.375 0l0 -0.21875l0.28125 0q0.5 0 0.71875 -0.296875q0.125 -0.1875 0.125 -0.859375l0 -6.078125l-0.953125 0q-0.5625 0 -0.796875 0.09375q-0.296875 0.109375 -0.515625 0.421875q-0.21875 0.3125 -0.25 0.859375l-0.234375 0l0.09375 -1.875l6.484375 0zm2.5546875 2.421875q1.21875 0 1.953125 0.9375q0.625 0.78125 0.625 1.8125q0 0.71875 -0.34375 1.453125q-0.34375 0.734375 -0.953125 1.125q-0.59375 0.375 -1.34375 0.375q-1.21875 0 -1.921875 -0.96875q-0.609375 -0.828125 -0.609375 -1.828125q0 -0.75 0.359375 -1.46875q0.375 -0.734375 0.96875 -1.078125q0.59375 -0.359375 1.265625 -0.359375zm-0.1875 0.390625q-0.296875 0 -0.625 0.1875q-0.3125 0.171875 -0.5 0.640625q-0.1875 0.46875 -0.1875 1.1875q0 1.171875 0.453125 2.03125q0.46875 0.84375 1.234375 0.84375q0.5625 0 0.9375 -0.46875q0.375 -0.46875 0.375 -1.609375q0 -1.4375 -0.625 -2.25q-0.40625 -0.5625 -1.0625 -0.5625zm5.15625 -3.1875l0 5.328125l1.359375 -1.234375q0.4375 -0.40625 0.5 -0.5q0.046875 -0.078125 0.046875 -0.140625q0 -0.125 -0.09375 -0.203125q-0.09375 -0.09375 -0.3125 -0.109375l0 -0.1875l2.328125 0l0 0.1875q-0.484375 0.015625 -0.8125 0.15625q-0.3125 0.125 -0.6875 0.484375l-1.375 1.265625l1.375 1.734375q0.578125 0.71875 0.765625 0.921875q0.28125 0.265625 0.5 0.359375q0.140625 0.046875 0.515625 0.046875l0 0.21875l-2.609375 0l0 -0.21875q0.21875 0 0.296875 -0.0625q0.078125 -0.0625 0.078125 -0.171875q0 -0.140625 -0.234375 -0.4375l-1.640625 -2.09375l0 1.78125q0 0.515625 0.0625 0.6875q0.078125 0.15625 0.203125 0.234375q0.140625 0.0625 0.59375 0.0625l0 0.21875l-2.734375 0l0 -0.21875q0.421875 0 0.625 -0.09375q0.125 -0.0625 0.1875 -0.203125q0.078125 -0.1875 0.078125 -0.65625l0 -4.890625q0 -0.9375 -0.046875 -1.140625q-0.03125 -0.203125 -0.125 -0.28125q-0.09375 -0.09375 -0.25 -0.09375q-0.109375 0 -0.359375 0.109375l-0.109375 -0.203125l1.59375 -0.65625l0.28125 0zm5.3125 4.984375q-0.015625 1.1875 0.578125 1.875q0.578125 0.671875 1.375 0.671875q0.53125 0 0.921875 -0.28125q0.390625 -0.296875 0.65625 -1.0l0.171875 0.125q-0.125 0.796875 -0.71875 1.46875q-0.578125 0.65625 -1.46875 0.65625q-0.96875 0 -1.65625 -0.75q-0.6875 -0.765625 -0.6875 -2.03125q0 -1.375 0.703125 -2.140625q0.703125 -0.78125 1.765625 -0.78125q0.90625 0 1.484375 0.59375q0.578125 0.59375 0.578125 1.59375l-3.703125 0zm0 -0.34375l2.484375 0q-0.03125 -0.515625 -0.125 -0.71875q-0.140625 -0.328125 -0.4375 -0.515625q-0.296875 -0.1875 -0.609375 -0.1875q-0.484375 0 -0.875 0.375q-0.375 0.375 -0.4375 1.046875zm5.982422 -0.703125q0.953125 -1.140625 1.796875 -1.140625q0.4375 0 0.75 0.21875q0.328125 0.21875 0.515625 0.734375q0.125 0.34375 0.125 1.078125l0 2.28125q0 0.515625 0.078125 0.703125q0.078125 0.140625 0.21875 0.21875q0.140625 0.078125 0.53125 0.078125l0 0.21875l-2.65625 0l0 -0.21875l0.109375 0q0.375 0 0.515625 -0.109375q0.15625 -0.109375 0.21875 -0.328125q0.015625 -0.09375 0.015625 -0.5625l0 -2.1875q0 -0.734375 -0.1875 -1.0625q-0.1875 -0.34375 -0.640625 -0.34375q-0.703125 0 -1.390625 0.765625l0 2.828125q0 0.546875 0.0625 0.671875q0.09375 0.171875 0.234375 0.25q0.140625 0.078125 0.578125 0.078125l0 0.21875l-2.65625 0l0 -0.21875l0.125 0q0.40625 0 0.546875 -0.203125q0.140625 -0.203125 0.140625 -0.796875l0 -1.984375q0 -0.96875 -0.046875 -1.171875q-0.03125 -0.21875 -0.125 -0.296875q-0.09375 -0.078125 -0.25 -0.078125q-0.15625 0 -0.390625 0.09375l-0.078125 -0.21875l1.609375 -0.65625l0.25 0l0 1.140625zm5.7968903 -3.9375q0.25 0 0.421875 0.171875q0.171875 0.171875 0.171875 0.421875q0 0.234375 -0.171875 0.421875q-0.171875 0.171875 -0.421875 0.171875q-0.234375 0 -0.421875 -0.171875q-0.171875 -0.1875 -0.171875 -0.421875q0 -0.25 0.171875 -0.421875q0.171875 -0.171875 0.421875 -0.171875zm0.5 2.796875l0 4.3125q0 0.515625 0.0625 0.6875q0.078125 0.15625 0.21875 0.234375q0.140625 0.078125 0.53125 0.078125l0 0.21875l-2.609375 0l0 -0.21875q0.390625 0 0.515625 -0.0625q0.140625 -0.078125 0.21875 -0.25q0.078125 -0.1875 0.078125 -0.6875l0 -2.0625q0 -0.875 -0.046875 -1.125q-0.046875 -0.1875 -0.140625 -0.265625q-0.078125 -0.078125 -0.234375 -0.078125q-0.15625 0 -0.390625 0.09375l-0.078125 -0.21875l1.609375 -0.65625l0.265625 0zm6.1464844 3.890625l-0.078125 1.640625l-4.734375 0l0 -0.21875l3.5625 -4.734375l-1.75 0q-0.5625 0 -0.75 0.078125q-0.171875 0.0625 -0.28125 0.265625q-0.15625 0.296875 -0.1875 0.734375l-0.234375 0l0.046875 -1.5l4.5 0l0 0.21875l-3.609375 4.765625l1.96875 0q0.609375 0 0.828125 -0.09375q0.21875 -0.109375 0.359375 -0.375q0.09375 -0.1875 0.15625 -0.78125l0.203125 0zm1.5605469 -1.703125q-0.015625 1.1875 0.578125 1.875q0.578125 0.671875 1.375 0.671875q0.53125 0 0.921875 -0.28125q0.390625 -0.296875 0.65625 -1.0l0.171875 0.125q-0.125 0.796875 -0.71875 1.46875q-0.578125 0.65625 -1.46875 0.65625q-0.96875 0 -1.65625 -0.75q-0.6875 -0.765625 -0.6875 -2.03125q0 -1.375 0.703125 -2.140625q0.703125 -0.78125 1.765625 -0.78125q0.90625 0 1.484375 0.59375q0.578125 0.59375 0.578125 1.59375l-3.703125 0zm0 -0.34375l2.484375 0q-0.03125 -0.515625 -0.125 -0.71875q-0.140625 -0.328125 -0.4375 -0.515625q-0.296875 -0.1875 -0.609375 -0.1875q-0.484375 0 -0.875 0.375q-0.375 0.375 -0.4375 1.046875zm5.998047 -1.84375l0 1.21875q0.671875 -1.21875 1.375 -1.21875q0.328125 0 0.53125 0.203125q0.21875 0.1875 0.21875 0.453125q0 0.234375 -0.15625 0.390625q-0.15625 0.15625 -0.359375 0.15625q-0.203125 0 -0.46875 -0.203125q-0.25 -0.203125 -0.375 -0.203125q-0.109375 0 -0.234375 0.109375q-0.25 0.25 -0.53125 0.796875l0 2.578125q0 0.4375 0.109375 0.671875q0.078125 0.15625 0.265625 0.265625q0.1875 0.09375 0.5625 0.09375l0 0.21875l-2.75 0l0 -0.21875q0.40625 0 0.609375 -0.125q0.140625 -0.09375 0.203125 -0.296875q0.03125 -0.09375 0.03125 -0.5625l0 -2.078125q0 -0.9375 -0.046875 -1.109375q-0.03125 -0.1875 -0.140625 -0.265625q-0.09375 -0.09375 -0.25 -0.09375q-0.1875 0 -0.40625 0.09375l-0.0625 -0.21875l1.625 -0.65625l0.25 0z" fill-rule="nonzero"/><path fill="#d9ead3" d="m8.0 90.89995l123.33858 0l0 53.480316l-123.33858 0z" fill-rule="evenodd"/><path stroke="#000000" stroke-width="1.0" stroke-linejoin="round" stroke-linecap="butt" d="m8.0 90.89995l123.33858 0l0 53.480316l-123.33858 0z" fill-rule="evenodd"/><path fill="#000000" d="m26.729984 107.26323q1.28125 0.265625 1.921875 0.875q0.875 0.828125 0.875 2.046875q0 0.921875 -0.59375 1.765625q-0.578125 0.828125 -1.59375 1.21875q-1.015625 0.390625 -3.09375 0.390625l-5.828125 0l0 -0.34375l0.46875 0q0.765625 0 1.109375 -0.484375q0.203125 -0.3125 0.203125 -1.359375l0 -7.984375q0 -1.140625 -0.265625 -1.4375q-0.359375 -0.40625 -1.046875 -0.40625l-0.46875 0l0 -0.34375l5.328125 0q1.5 0 2.40625 0.21875q1.359375 0.328125 2.078125 1.171875q0.71875 0.828125 0.71875 1.90625q0 0.9375 -0.5625 1.671875q-0.5625 0.734375 -1.65625 1.09375zm-4.78125 -0.5q0.34375 0.0625 0.765625 0.09375q0.4375 0.03125 0.953125 0.03125q1.328125 0 2.0 -0.28125q0.671875 -0.28125 1.03125 -0.875q0.359375 -0.59375 0.359375 -1.296875q0 -1.09375 -0.890625 -1.84375q-0.890625 -0.765625 -2.578125 -0.765625q-0.90625 0 -1.640625 0.1875l0 4.75zm0 5.90625q1.0625 0.25 2.09375 0.25q1.640625 0 2.5 -0.734375q0.875 -0.75 0.875 -1.84375q0 -0.71875 -0.390625 -1.390625q-0.390625 -0.671875 -1.28125 -1.046875q-0.875 -0.390625 -2.1875 -0.390625q-0.5625 0 -0.96875 0.03125q-0.390625 0.015625 -0.640625 0.0625l0 5.0625zm11.302948 -12.0625q0.390625 0 0.65625 0.265625q0.265625 0.265625 0.265625 0.65625q0 0.375 -0.265625 0.65625q-0.265625 0.265625 -0.65625 0.265625q-0.375 0 -0.65625 -0.265625q-0.265625 -0.28125 -0.265625 -0.65625q0 -0.390625 0.265625 -0.65625q0.265625 -0.265625 0.65625 -0.265625zm0.765625 4.359375l0 6.703125q0 0.78125 0.109375 1.046875q0.109375 0.265625 0.328125 0.390625q0.234375 0.125 0.828125 0.125l0 0.328125l-4.0625 0l0 -0.328125q0.609375 0 0.8125 -0.109375q0.21875 -0.125 0.34375 -0.390625q0.125 -0.28125 0.125 -1.0625l0 -3.203125q0 -1.359375 -0.078125 -1.765625q-0.078125 -0.296875 -0.21875 -0.40625q-0.125 -0.109375 -0.359375 -0.109375q-0.265625 0 -0.625 0.140625l-0.125 -0.328125l2.515625 -1.03125l0.40625 0zm6.386429 0q1.890625 0 3.03125 1.4375q0.984375 1.234375 0.984375 2.828125q0 1.125 -0.546875 2.28125q-0.53125 1.140625 -1.484375 1.71875q-0.9375 0.578125 -2.09375 0.578125q-1.890625 0 -3.0 -1.5q-0.9375 -1.265625 -0.9375 -2.84375q0 -1.140625 0.5625 -2.265625q0.578125 -1.140625 1.5 -1.6875q0.9375 -0.546875 1.984375 -0.546875zm-0.296875 0.59375q-0.46875 0 -0.96875 0.296875q-0.484375 0.28125 -0.78125 1.0q-0.296875 0.71875 -0.296875 1.84375q0 1.828125 0.71875 3.15625q0.71875 1.3125 1.90625 1.3125q0.890625 0 1.453125 -0.71875q0.578125 -0.734375 0.578125 -2.515625q0 -2.21875 -0.953125 -3.5q-0.640625 -0.875 -1.65625 -0.875zm12.59375 8.0l-4.78125 -10.390625l0 8.25q0 1.140625 0.25 1.421875q0.328125 0.375 1.0625 0.375l0.4375 0l0 0.34375l-4.296875 0l0 -0.34375l0.4375 0q0.78125 0 1.109375 -0.46875q0.203125 -0.296875 0.203125 -1.328125l0 -8.078125q0 -0.8125 -0.1875 -1.171875q-0.125 -0.265625 -0.46875 -0.4375q-0.34375 -0.1875 -1.09375 -0.1875l0 -0.34375l3.5 0l4.484375 9.671875l4.40625 -9.671875l3.5 0l0 0.34375l-0.4375 0q-0.796875 0 -1.125 0.46875q-0.1875 0.296875 -0.1875 1.328125l0 8.078125q0 1.140625 0.25 1.421875q0.34375 0.375 1.0625 0.375l0.4375 0l0 0.34375l-5.25 0l0 -0.34375l0.4375 0q0.78125 0 1.109375 -0.46875q0.203125 -0.296875 0.203125 -1.328125l0 -8.25l-4.765625 10.390625l-0.296875 0zm10.932144 -5.203125q0 1.859375 0.9062462 2.921875q0.90625 1.046875 2.140625 1.046875q0.8125 0 1.421875 -0.4375q0.609375 -0.453125 1.015625 -1.546875l0.28125 0.171875q-0.1875 1.25 -1.109375 2.28125q-0.921875 1.015625 -2.296875 1.015625q-1.515625 0 -2.5937462 -1.171875q-1.0625 -1.171875 -1.0625 -3.140625q0 -2.140625 1.09375 -3.328125q1.1093712 -1.203125 2.7656212 -1.203125q1.40625 0 2.296875 0.921875q0.90625 0.921875 0.90625 2.46875l-5.765621 0zm0 -0.53125l3.8593712 0q-0.046875 -0.796875 -0.1875 -1.125q-0.234375 -0.515625 -0.6875 -0.796875q-0.4375 -0.296875 -0.9375 -0.296875q-0.75 0 -1.34375 0.59375q-0.5937462 0.578125 -0.7031212 1.625zm12.780529 4.796875q-0.625 0.640625 -1.203125 0.921875q-0.578125 0.265625 -1.25 0.265625q-1.375 0 -2.390625 -1.140625q-1.015625 -1.140625 -1.015625 -2.9375q0 -1.796875 1.125 -3.28125q1.125 -1.484375 2.90625 -1.484375q1.09375 0 1.828125 0.703125l0 -1.546875q0 -1.4375 -0.078125 -1.765625q-0.0625 -0.328125 -0.21875 -0.4375q-0.140625 -0.125 -0.359375 -0.125q-0.234375 0 -0.625 0.15625l-0.125 -0.328125l2.484375 -1.015625l0.421875 0l0 9.640625q0 1.46875 0.0625 1.796875q0.0625 0.328125 0.21875 0.453125q0.15625 0.125 0.359375 0.125q0.234375 0 0.65625 -0.15625l0.09375 0.3125l-2.484375 1.03125l-0.40625 0l0 -1.1875zm0 -0.640625l0 -4.296875q-0.0625 -0.625 -0.34375 -1.125q-0.265625 -0.515625 -0.71875 -0.765625q-0.453125 -0.265625 -0.875 -0.265625q-0.796875 0 -1.4375 0.71875q-0.828125 0.9375 -0.828125 2.765625q0 1.84375 0.796875 2.828125q0.8125 0.96875 1.796875 0.96875q0.828125 0 1.609375 -0.828125zm7.2578125 -10.78125l3.359375 0l7.546875 9.265625l0 -7.125q0 -1.125 -0.25 -1.421875q-0.34375 -0.375 -1.0625 -0.375l-0.4375 0l0 -0.34375l4.296875 0l0 0.34375l-0.4375 0q-0.78125 0 -1.109375 0.46875q-0.203125 0.296875 -0.203125 1.328125l0 10.421875l-0.328125 0l-8.140625 -9.953125l0 7.609375q0 1.140625 0.25 1.421875q0.34375 0.375 1.0625 0.375l0.4375 0l0 0.34375l-4.296875 0l0 -0.34375l0.421875 0q0.796875 0 1.125 -0.46875q0.203125 -0.296875 0.203125 -1.328125l0 -8.59375q-0.53125 -0.625 -0.8125 -0.828125q-0.28125 -0.203125 -0.8125 -0.375q-0.265625 -0.078125 -0.8125 -0.078125l0 -0.34375zm17.629196 0.6875l0 4.875l2.703125 0q1.0625 0 1.421875 -0.3125q0.46875 -0.421875 0.515625 -1.484375l0.34375 0l0 4.296875l-0.34375 0q-0.125 -0.890625 -0.25 -1.15625q-0.15625 -0.3125 -0.53125 -0.484375q-0.375 -0.1875 -1.15625 -0.1875l-2.703125 0l0 4.0625q0 0.828125 0.0625 1.0q0.078125 0.171875 0.25 0.28125q0.1875 0.109375 0.703125 0.109375l2.09375 0q1.046875 0 1.515625 -0.140625q0.484375 -0.15625 0.921875 -0.578125q0.5625 -0.5625 1.15625 -1.703125l0.359375 0l-1.0625 3.09375l-9.53125 0l0 -0.34375l0.4375 0q0.4375 0 0.84375 -0.203125q0.28125 -0.140625 0.390625 -0.4375q0.109375 -0.296875 0.109375 -1.1875l0 -8.03125q0 -1.171875 -0.25 -1.453125q-0.328125 -0.359375 -1.09375 -0.359375l-0.4375 0l0 -0.34375l9.53125 0l0.125 2.71875l-0.34375 0q-0.203125 -0.984375 -0.4375 -1.34375q-0.21875 -0.359375 -0.671875 -0.5625q-0.375 -0.125 -1.296875 -0.125l-3.375 0zm20.099106 11.671875l-3.296875 0l-4.1875 -5.78125q-0.453125 0.03125 -0.75 0.03125q-0.125 0 -0.265625 0q-0.125 -0.015625 -0.28125 -0.03125l0 3.59375q0 1.171875 0.265625 1.453125q0.34375 0.390625 1.03125 0.390625l0.484375 0l0 0.34375l-5.296875 0l0 -0.34375l0.46875 0q0.78125 0 1.125 -0.5q0.1875 -0.28125 0.1875 -1.34375l0 -7.984375q0 -1.15625 -0.25 -1.4375q-0.359375 -0.40625 -1.0625 -0.40625l-0.46875 0l0 -0.34375l4.5 0q1.96875 0 2.90625 0.296875q0.9375 0.28125 1.578125 1.0625q0.65625 0.765625 0.65625 1.828125q0 1.140625 -0.75 1.984375q-0.734375 0.828125 -2.28125 1.171875l2.546875 3.546875q0.875 1.21875 1.5 1.625q0.625 0.390625 1.640625 0.5l0 0.34375zm-8.78125 -6.34375q0.1875 0 0.3125 0q0.125 0 0.203125 0q1.765625 0 2.65625 -0.765625q0.90625 -0.765625 0.90625 -1.953125q0 -1.15625 -0.734375 -1.875q-0.71875 -0.71875 -1.90625 -0.71875q-0.53125 0 -1.4375 0.171875l0 5.140625z" fill-rule="nonzero"/><path fill="#000000" d="m52.955677 135.5601l-4.78125 -10.390625l0 8.25q0 1.140625 0.25 1.421875q0.328125 0.375 1.0625 0.375l0.4375 0l0 0.34375l-4.296875 0l0 -0.34375l0.4375 0q0.78125 0 1.109375 -0.46875q0.203125 -0.296875 0.203125 -1.328125l0 -8.078125q0 -0.8125 -0.1875 -1.171875q-0.125 -0.265625 -0.46875 -0.4375q-0.34375 -0.1875 -1.09375 -0.1875l0 -0.34375l3.5 0l4.484375 9.671875l4.40625 -9.671875l3.5 0l0 0.34375l-0.4375 0q-0.796875 0 -1.125 0.46875q-0.1875 0.296875 -0.1875 1.328125l0 8.078125q0 1.140625 0.25 1.421875q0.34375 0.375 1.0625 0.375l0.4375 0l0 0.34375l-5.25 0l0 -0.34375l0.4375 0q0.78125 0 1.109375 -0.46875q0.203125 -0.296875 0.203125 -1.328125l0 -8.25l-4.765625 10.390625l-0.296875 0zm13.61964 -8.59375q1.890625 0 3.03125 1.4375q0.984375 1.234375 0.984375 2.828125q0 1.125 -0.546875 2.28125q-0.53125 1.140625 -1.484375 1.71875q-0.9375 0.578125 -2.09375 0.578125q-1.890625 0 -2.9999962 -1.5q-0.9375 -1.265625 -0.9375 -2.84375q0 -1.140625 0.5625 -2.265625q0.578125 -1.140625 1.4999962 -1.6875q0.9375 -0.546875 1.984375 -0.546875zm-0.296875 0.59375q-0.46875 0 -0.96875 0.296875q-0.484375 0.28125 -0.78125 1.0q-0.296875 0.71875 -0.296875 1.84375q0 1.828125 0.71875 3.15625q0.71875 1.3125 1.90625 1.3125q0.890625 0 1.453125 -0.71875q0.578125 -0.734375 0.578125 -2.515625q0 -2.21875 -0.953125 -3.5q-0.640625 -0.875 -1.65625 -0.875zm11.4375 7.0625q-0.625 0.640625 -1.203125 0.921875q-0.578125 0.265625 -1.25 0.265625q-1.375 0 -2.390625 -1.140625q-1.015625 -1.140625 -1.015625 -2.9375q0 -1.796875 1.125 -3.28125q1.125 -1.484375 2.90625 -1.484375q1.09375 0 1.828125 0.703125l0 -1.546875q0 -1.4375 -0.078125 -1.765625q-0.0625 -0.328125 -0.21875 -0.4375q-0.140625 -0.125 -0.359375 -0.125q-0.234375 0 -0.625 0.15625l-0.125 -0.328125l2.484375 -1.015625l0.421875 0l0 9.640625q0 1.46875 0.0625 1.796875q0.0625 0.328125 0.21875 0.453125q0.15625 0.125 0.359375 0.125q0.234375 0 0.65625 -0.15625l0.09375 0.3125l-2.484375 1.03125l-0.40625 0l0 -1.1875zm0 -0.640625l0 -4.296875q-0.0625 -0.625 -0.34375 -1.125q-0.265625 -0.515625 -0.71875 -0.765625q-0.453125 -0.265625 -0.875 -0.265625q-0.796875 0 -1.4375 0.71875q-0.828125 0.9375 -0.828125 2.765625q0 1.84375 0.796875 2.828125q0.8125 0.96875 1.796875 0.96875q0.828125 0 1.609375 -0.828125zm4.828125 -3.625q0 1.859375 0.90625 2.921875q0.90625 1.046875 2.140625 1.046875q0.8125 0 1.421875 -0.4375q0.609375 -0.453125 1.015625 -1.546875l0.28125 0.171875q-0.1875 1.25 -1.109375 2.28125q-0.921875 1.015625 -2.296875 1.015625q-1.515625 0 -2.59375 -1.171875q-1.0625 -1.171875 -1.0625 -3.140625q0 -2.140625 1.09375 -3.328125q1.109375 -1.203125 2.765625 -1.203125q1.40625 0 2.296875 0.921875q0.90625 0.921875 0.90625 2.46875l-5.765625 0zm0 -0.53125l3.859375 0q-0.046875 -0.796875 -0.1875 -1.125q-0.234375 -0.515625 -0.6875 -0.796875q-0.4375 -0.296875 -0.9375 -0.296875q-0.75 0 -1.34375 0.59375q-0.59375 0.578125 -0.703125 1.625zm9.749283 -7.21875l0 11.0625q0 0.78125 0.109375 1.046875q0.125 0.25 0.359375 0.390625q0.234375 0.125 0.875 0.125l0 0.328125l-4.09375 0l0 -0.328125q0.578125 0 0.78125 -0.109375q0.21875 -0.125 0.328125 -0.390625q0.125 -0.28125 0.125 -1.0625l0 -7.578125q0 -1.40625 -0.0625 -1.734375q-0.0625 -0.328125 -0.203125 -0.4375q-0.140625 -0.125 -0.359375 -0.125q-0.234375 0 -0.609375 0.15625l-0.140625 -0.328125l2.484375 -1.015625l0.40625 0z" fill-rule="nonzero"/><path fill="#000000" fill-opacity="0.0" d="m179.59055 51.08399l-109.92126 0l0 39.811024" fill-rule="evenodd"/><path stroke="#ff0000" stroke-width="1.0" stroke-linejoin="round" stroke-linecap="butt" stroke-dasharray="4.0,3.0" d="m179.59055 51.08399l-109.92126 0l0 33.811024" fill-rule="evenodd"/><path fill="#ff0000" stroke="#ff0000" stroke-width="1.0" stroke-linecap="butt" d="m68.017555 84.89501l1.6517334 4.538101l1.6517334 -4.538101z" fill-rule="evenodd"/><path fill="#000000" fill-opacity="0.0" d="m131.33858 117.64011l54.299225 0.22047424" fill-rule="evenodd"/><path stroke="#ff0000" stroke-width="1.0" stroke-linejoin="round" stroke-linecap="butt" stroke-dasharray="4.0,3.0" d="m131.33858 117.6401l48.299255 0.19611359" fill-rule="evenodd"/><path fill="#ff0000" stroke="#ff0000" stroke-width="1.0" stroke-linecap="butt" d="m179.63113 119.48793l4.5447693 -1.6332932l-4.531357 -1.6701431z" fill-rule="evenodd"/><path fill="#000000" fill-opacity="0.0" d="m43.8084 8.0l86.20473 0l0 34.929134l-86.20473 0z" fill-rule="evenodd"/><path fill="#cc0000" d="m60.4334 28.750626l2.875 -6.984375l4.312496 0l0 0.28125l-0.34375 0q-0.46875 0 -0.75 0.171875q-0.1875 0.109375 -0.3125 0.359375q-0.078125 0.1875 -0.078125 0.984375l0 6.984375q0 0.8125 0.078125 1.015625q0.09375 0.203125 0.359375 0.359375q0.265625 0.140625 0.703125 0.140625l0.34375 0l0 0.296875l-5.531246 0l0 -0.296875l0.34375 0q0.46875 0 0.75 -0.15625q0.203125 -0.109375 0.3125 -0.375q0.09375 -0.1875 0.09375 -0.984375l0 -7.859375l-4.0625 9.671875l-0.1875 0l-4.125 -9.59375l0 7.453125q0 0.78125 0.03125 0.96875q0.109375 0.390625 0.4375 0.640625q0.34375 0.234375 1.078125 0.234375l0 0.296875l-3.625 0l0 -0.296875l0.109375 0q0.34375 0.015625 0.640625 -0.109375q0.3125 -0.125 0.46875 -0.328125q0.15625 -0.203125 0.25 -0.5625q0.015625 -0.09375 0.015625 -0.796875l0 -6.703125q0 -0.8125 -0.09375 -1.0q-0.078125 -0.203125 -0.34375 -0.359375q-0.265625 -0.15625 -0.71875 -0.15625l-0.328125 0l0 -0.28125l4.328125 0l2.96875 6.984375zm11.460934 -3.921875q0.953125 0 1.765625 0.5q0.828125 0.484375 1.25 1.390625q0.4375 0.90625 0.4375 1.984375q0 1.5625 -0.796875 2.609375q-0.953125 1.265625 -2.625 1.265625q-1.65625 0 -2.546875 -1.15625q-0.890625 -1.15625 -0.890625 -2.6875q0 -1.5625 0.90625 -2.734375q0.921875 -1.171875 2.5 -1.171875zm0.03125 0.5625q-0.390625 0 -0.6875 0.296875q-0.28125 0.296875 -0.375 1.1875q-0.078125 0.890625 -0.078125 2.46875q0 0.828125 0.109375 1.5625q0.078125 0.546875 0.359375 0.84375q0.28125 0.28125 0.640625 0.28125q0.359375 0 0.59375 -0.1875q0.296875 -0.265625 0.40625 -0.75q0.15625 -0.734375 0.15625 -3.0q0 -1.328125 -0.15625 -1.8125q-0.140625 -0.5 -0.4375 -0.734375q-0.203125 -0.15625 -0.53125 -0.15625zm11.625 -3.625l0 8.40625q0 0.84375 0.046875 1.0q0.0625 0.265625 0.234375 0.390625q0.1875 0.125 0.625 0.15625l0 0.25l-3.09375 0.609375l0 -1.15625q-0.546875 0.671875 -0.984375 0.921875q-0.4375 0.234375 -0.984375 0.234375q-1.390625 0 -2.203125 -1.25q-0.65625 -1.015625 -0.65625 -2.5q0 -1.171875 0.40625 -2.109375q0.40625 -0.9375 1.109375 -1.40625q0.703125 -0.484375 1.515625 -0.484375q0.53125 0 0.9375 0.203125q0.40625 0.203125 0.859375 0.71875l0 -2.203125q0 -0.84375 -0.0625 -1.015625q-0.09375 -0.21875 -0.28125 -0.328125q-0.1875 -0.109375 -0.703125 -0.109375l0 -0.328125l3.234375 0zm-2.1875 4.953125q-0.578125 -1.109375 -1.40625 -1.109375q-0.296875 0 -0.484375 0.15625q-0.28125 0.234375 -0.46875 0.84375q-0.1875 0.609375 -0.1875 1.875q0 1.375 0.203125 2.046875q0.203125 0.65625 0.5625 0.953125q0.171875 0.15625 0.484375 0.15625q0.6875 0 1.296875 -1.078125l0 -3.84375zm10.1796875 1.71875l-4.015625 0q0.078125 1.453125 0.78125 2.296875q0.53125 0.65625 1.296875 0.65625q0.46875 0 0.84375 -0.265625q0.390625 -0.265625 0.828125 -0.9375l0.265625 0.171875q-0.59375 1.203125 -1.3125 1.71875q-0.71875 0.5 -1.671875 0.5q-1.625 0 -2.453125 -1.25q-0.671875 -1.015625 -0.671875 -2.5q0 -1.828125 0.984375 -2.90625q0.984375 -1.09375 2.3125 -1.09375q1.109375 0 1.921875 0.921875q0.828125 0.90625 0.890625 2.6875zm-1.921875 -0.515625q0 -1.265625 -0.140625 -1.734375q-0.140625 -0.46875 -0.421875 -0.703125q-0.171875 -0.140625 -0.4375 -0.140625q-0.40625 0 -0.671875 0.390625q-0.453125 0.703125 -0.453125 1.90625l0 0.28125l2.125 0zm5.6953125 -6.15625l0 9.078125q0 0.765625 0.171875 0.984375q0.1875 0.21875 0.703125 0.25l0 0.28125l-3.9375 0l0 -0.28125q0.484375 -0.015625 0.71875 -0.28125q0.15625 -0.1875 0.15625 -0.953125l0 -7.5625q0 -0.765625 -0.1875 -0.984375q-0.171875 -0.21875 -0.6875 -0.25l0 -0.28125l3.0625 0zm10.8984375 10.296875l0 0.296875l-5.53125 0l0 -0.296875l0.34375 0q0.46875 0 0.75 -0.15625q0.203125 -0.109375 0.3125 -0.375q0.078125 -0.1875 0.078125 -0.984375l0 -6.96875q0 -0.8125 -0.09375 -1.015625q-0.078125 -0.203125 -0.34375 -0.359375q-0.25 -0.15625 -0.703125 -0.15625l-0.34375 0l0 -0.28125l5.53125 0l0 0.28125l-0.34375 0q-0.46875 0 -0.75 0.171875q-0.203125 0.109375 -0.3125 0.375q-0.09375 0.1875 -0.09375 0.984375l0 6.96875q0 0.8125 0.09375 1.015625q0.09375 0.203125 0.34375 0.359375q0.265625 0.140625 0.71875 0.140625l0.34375 0zm6.2265625 0l0 0.296875l-5.53125 0l0 -0.296875l0.34375 0q0.46875 0 0.75 -0.15625q0.203125 -0.109375 0.3125 -0.375q0.078125 -0.1875 0.078125 -0.984375l0 -6.96875q0 -0.8125 -0.09375 -1.015625q-0.078125 -0.203125 -0.34375 -0.359375q-0.25 -0.15625 -0.703125 -0.15625l-0.34375 0l0 -0.28125l5.53125 0l0 0.28125l-0.34375 0q-0.46875 0 -0.75 0.171875q-0.203125 0.109375 -0.3125 0.375q-0.09375 0.1875 -0.09375 0.984375l0 6.96875q0 0.8125 0.09375 1.015625q0.09375 0.203125 0.34375 0.359375q0.265625 0.140625 0.71875 0.140625l0.34375 0z" fill-rule="nonzero"/><path fill="#000000" fill-opacity="0.0" d="m335.3727 23.682415l0 0c4.2518005 0 8.329498 1.6890278 11.335968 4.6955166c3.0065002 3.0064888 4.695526 7.0841618 4.695526 11.335978l0 111.93701c0 8.853943 7.1775513 16.031494 16.031494 16.031494l0 0c-8.853943 0 -16.031494 7.177536 -16.031494 16.031494l0 111.937c0 8.853973 -7.1775513 16.031494 -16.031494 16.031494z" fill-rule="evenodd"/><path fill="#000000" fill-opacity="0.0" d="m335.3727 23.682415l0 0c4.2518005 0 8.329498 1.6890278 11.335968 4.6955166c3.0065002 3.0064888 4.695526 7.0841618 4.695526 11.335978l0 111.93701c0 8.853943 7.1775513 16.031494 16.031494 16.031494l0 0c-8.853943 0 -16.031494 7.177536 -16.031494 16.031494l0 111.937c0 8.853973 -7.1775513 16.031494 -16.031494 16.031494" fill-rule="evenodd"/><path stroke="#4a86e8" stroke-width="1.0" stroke-linejoin="round" stroke-linecap="butt" d="m335.3727 23.682415l0 0c4.2518005 0 8.329498 1.6890278 11.335968 4.6955166c3.0065002 3.0064888 4.695526 7.0841618 4.695526 11.335978l0 111.93701c0 8.853943 7.1775513 16.031494 16.031494 16.031494l0 0c-8.853943 0 -16.031494 7.177536 -16.031494 16.031494l0 111.937c0 8.853973 -7.1775513 16.031494 -16.031494 16.031494" fill-rule="evenodd"/><path fill="#000000" fill-opacity="0.0" d="m363.44513 148.49995l86.20474 0l0 34.929123l-86.20474 0z" fill-rule="evenodd"/><path fill="#1155cc" d="m380.07013 169.25058l2.875 -6.984375l4.3125 0l0 0.28125l-0.34375 0q-0.46875 0 -0.75 0.171875q-0.1875 0.109375 -0.3125 0.359375q-0.078125 0.1875 -0.078125 0.984375l0 6.984375q0 0.8125 0.078125 1.015625q0.09375 0.203125 0.359375 0.359375q0.265625 0.140625 0.703125 0.140625l0.34375 0l0 0.296875l-5.53125 0l0 -0.296875l0.34375 0q0.46875 0 0.75 -0.15625q0.203125 -0.109375 0.3125 -0.375q0.09375 -0.1875 0.09375 -0.984375l0 -7.859375l-4.0625 9.671875l-0.1875 0l-4.125 -9.59375l0 7.453125q0 0.78125 0.03125 0.96875q0.109375 0.390625 0.4375 0.640625q0.34375 0.234375 1.078125 0.234375l0 0.296875l-3.625 0l0 -0.296875l0.109375 0q0.34375 0.015625 0.640625 -0.109375q0.3125 -0.125 0.46875 -0.328125q0.15625 -0.203125 0.25 -0.5625q0.015625 -0.09375 0.015625 -0.796875l0 -6.703125q0 -0.8125 -0.09375 -1.0q-0.078125 -0.203125 -0.34375 -0.359375q-0.265625 -0.15625 -0.71875 -0.15625l-0.328125 0l0 -0.28125l4.328125 0l2.96875 6.984375zm11.4609375 -3.921875q0.953125 0 1.765625 0.5q0.828125 0.484375 1.25 1.390625q0.4375 0.90625 0.4375 1.984375q0 1.5625 -0.796875 2.609375q-0.953125 1.265625 -2.625 1.265625q-1.65625 0 -2.546875 -1.15625q-0.890625 -1.15625 -0.890625 -2.6875q0 -1.5625 0.90625 -2.734375q0.921875 -1.171875 2.5 -1.171875zm0.03125 0.5625q-0.390625 0 -0.6875 0.296875q-0.28125 0.296875 -0.375 1.1875q-0.078125 0.890625 -0.078125 2.46875q0 0.828125 0.109375 1.5625q0.078125 0.546875 0.359375 0.84375q0.28125 0.28125 0.640625 0.28125q0.359375 0 0.59375 -0.1875q0.296875 -0.265625 0.40625 -0.75q0.15625 -0.734375 0.15625 -3.0q0 -1.328125 -0.15625 -1.8125q-0.140625 -0.5 -0.4375 -0.734375q-0.203125 -0.15625 -0.53125 -0.15625zm11.625 -3.625l0 8.40625q0 0.84375 0.046875 1.0q0.0625 0.265625 0.234375 0.390625q0.1875 0.125 0.625 0.15625l0 0.25l-3.09375 0.609375l0 -1.15625q-0.546875 0.671875 -0.984375 0.921875q-0.4375 0.234375 -0.984375 0.234375q-1.390625 0 -2.203125 -1.25q-0.65625 -1.015625 -0.65625 -2.5q0 -1.171875 0.40625 -2.109375q0.40625 -0.9375 1.109375 -1.40625q0.703125 -0.484375 1.515625 -0.484375q0.53125 0 0.9375 0.203125q0.40625 0.203125 0.859375 0.71875l0 -2.203125q0 -0.84375 -0.0625 -1.015625q-0.09375 -0.21875 -0.28125 -0.328125q-0.1875 -0.109375 -0.703125 -0.109375l0 -0.328125l3.234375 0zm-2.1875 4.953125q-0.578125 -1.109375 -1.40625 -1.109375q-0.296875 0 -0.484375 0.15625q-0.28125 0.234375 -0.46875 0.84375q-0.1875 0.609375 -0.1875 1.875q0 1.375 0.203125 2.046875q0.203125 0.65625 0.5625 0.953125q0.171875 0.15625 0.484375 0.15625q0.6875 0 1.296875 -1.078125l0 -3.84375zm10.1796875 1.71875l-4.015625 0q0.078125 1.453125 0.78125 2.296875q0.53125 0.65625 1.296875 0.65625q0.46875 0 0.84375 -0.265625q0.390625 -0.265625 0.828125 -0.9375l0.265625 0.171875q-0.59375 1.203125 -1.3125 1.71875q-0.71875 0.5 -1.671875 0.5q-1.625 0 -2.453125 -1.25q-0.671875 -1.015625 -0.671875 -2.5q0 -1.828125 0.984375 -2.90625q0.984375 -1.09375 2.3125 -1.09375q1.109375 0 1.921875 0.921875q0.828125 0.90625 0.890625 2.6875zm-1.921875 -0.515625q0 -1.265625 -0.140625 -1.734375q-0.140625 -0.46875 -0.421875 -0.703125q-0.171875 -0.140625 -0.4375 -0.140625q-0.40625 0 -0.671875 0.390625q-0.453125 0.703125 -0.453125 1.90625l0 0.28125l2.125 0zm5.6953125 -6.15625l0 9.078125q0 0.765625 0.171875 0.984375q0.1875 0.21875 0.703125 0.25l0 0.28125l-3.9375 0l0 -0.28125q0.484375 -0.015625 0.71875 -0.28125q0.15625 -0.1875 0.15625 -0.953125l0 -7.5625q0 -0.765625 -0.1875 -0.984375q-0.171875 -0.21875 -0.6875 -0.25l0 -0.28125l3.0625 0zm10.8984375 10.296875l0 0.296875l-5.53125 0l0 -0.296875l0.34375 0q0.46875 0 0.75 -0.15625q0.203125 -0.109375 0.3125 -0.375q0.078125 -0.1875 0.078125 -0.984375l0 -6.96875q0 -0.8125 -0.09375 -1.015625q-0.078125 -0.203125 -0.34375 -0.359375q-0.25 -0.15625 -0.703125 -0.15625l-0.34375 0l0 -0.28125l5.53125 0l0 0.28125l-0.34375 0q-0.46875 0 -0.75 0.171875q-0.203125 0.109375 -0.3125 0.375q-0.09375 0.1875 -0.09375 0.984375l0 6.96875q0 0.8125 0.09375 1.015625q0.09375 0.203125 0.34375 0.359375q0.265625 0.140625 0.71875 0.140625l0.34375 0z" fill-rule="nonzero"/><path fill="#000000" fill-opacity="0.0" d="m198.32515 154.75696l132.94487 0l0 28.881882l-132.94487 0z" fill-rule="evenodd"/><path fill="#000000" d="m209.84077 167.76134l0 3.140625l1.734375 0q0.6875 0 0.90625 -0.203125q0.3125 -0.265625 0.34375 -0.953125l0.21875 0l0 2.765625l-0.21875 0q-0.078125 -0.578125 -0.15625 -0.734375q-0.109375 -0.203125 -0.359375 -0.3125q-0.234375 -0.125 -0.734375 -0.125l-1.734375 0l0 2.609375q0 0.53125 0.046875 0.65625q0.046875 0.109375 0.15625 0.171875q0.125 0.0625 0.453125 0.0625l1.34375 0q0.671875 0 0.96875 -0.09375q0.3125 -0.09375 0.59375 -0.359375q0.359375 -0.375 0.75 -1.109375l0.234375 0l-0.6875 2.0l-6.125 0l0 -0.21875l0.28125 0q0.28125 0 0.53125 -0.140625q0.1875 -0.09375 0.25 -0.28125q0.078125 -0.1875 0.078125 -0.765625l0 -5.15625q0 -0.75 -0.15625 -0.9375q-0.21875 -0.234375 -0.703125 -0.234375l-0.28125 0l0 -0.21875l6.125 0l0.078125 1.75l-0.21875 0q-0.125 -0.625 -0.28125 -0.859375q-0.140625 -0.234375 -0.4375 -0.359375q-0.234375 -0.09375 -0.828125 -0.09375l-2.171875 0zm6.783203 3.125q0.59375 -0.578125 0.6875 -0.671875q0.265625 -0.21875 0.5625 -0.34375q0.3125 -0.125 0.609375 -0.125q0.515625 0 0.875 0.296875q0.359375 0.296875 0.484375 0.84375q0.609375 -0.703125 1.015625 -0.921875q0.421875 -0.21875 0.859375 -0.21875q0.421875 0 0.75 0.21875q0.34375 0.21875 0.53125 0.71875q0.125 0.34375 0.125 1.078125l0 2.296875q0 0.515625 0.078125 0.703125q0.0625 0.125 0.21875 0.21875q0.15625 0.078125 0.515625 0.078125l0 0.21875l-2.640625 0l0 -0.21875l0.109375 0q0.34375 0 0.53125 -0.125q0.140625 -0.09375 0.203125 -0.296875q0.015625 -0.109375 0.015625 -0.578125l0 -2.296875q0 -0.65625 -0.15625 -0.9375q-0.234375 -0.375 -0.734375 -0.375q-0.3125 0 -0.625 0.15625q-0.3125 0.15625 -0.75 0.578125l-0.015625 0.0625l0.015625 0.25l0 2.5625q0 0.5625 0.046875 0.703125q0.0625 0.125 0.234375 0.21875q0.171875 0.078125 0.578125 0.078125l0 0.21875l-2.703125 0l0 -0.21875q0.4375 0 0.609375 -0.09375q0.171875 -0.109375 0.234375 -0.328125q0.03125 -0.09375 0.03125 -0.578125l0 -2.296875q0 -0.65625 -0.203125 -0.953125q-0.25 -0.375 -0.71875 -0.375q-0.3125 0 -0.625 0.171875q-0.484375 0.265625 -0.75 0.578125l0 2.875q0 0.53125 0.0625 0.6875q0.078125 0.15625 0.21875 0.234375q0.15625 0.078125 0.59375 0.078125l0 0.21875l-2.65625 0l0 -0.21875q0.375 0 0.515625 -0.078125q0.140625 -0.078125 0.21875 -0.25q0.078125 -0.171875 0.078125 -0.671875l0 -2.046875q0 -0.890625 -0.046875 -1.140625q-0.046875 -0.1875 -0.140625 -0.265625q-0.078125 -0.078125 -0.234375 -0.078125q-0.15625 0 -0.390625 0.09375l-0.09375 -0.21875l1.625 -0.65625l0.25 0l0 1.140625zm9.208984 -0.046875q0.78125 -1.09375 1.6875 -1.09375q0.828125 0 1.4375 0.71875q0.609375 0.703125 0.609375 1.921875q0 1.4375 -0.9375 2.296875q-0.8125 0.765625 -1.828125 0.765625q-0.46875 0 -0.953125 -0.171875q-0.46875 -0.171875 -0.984375 -0.515625l0 -5.5625q0 -0.90625 -0.046875 -1.109375q-0.03125 -0.21875 -0.125 -0.296875q-0.09375 -0.078125 -0.234375 -0.078125q-0.171875 0 -0.421875 0.09375l-0.078125 -0.203125l1.609375 -0.65625l0.265625 0l0 3.890625zm0 0.375l0 3.203125q0.296875 0.296875 0.609375 0.453125q0.328125 0.140625 0.671875 0.140625q0.53125 0 0.984375 -0.578125q0.46875 -0.59375 0.46875 -1.71875q0 -1.03125 -0.46875 -1.578125q-0.453125 -0.546875 -1.046875 -0.546875q-0.3125 0 -0.625 0.15625q-0.234375 0.109375 -0.59375 0.46875zm5.4375 0.71875q-0.015625 1.1875 0.578125 1.875q0.578125 0.671875 1.375 0.671875q0.53125 0 0.921875 -0.28125q0.390625 -0.296875 0.65625 -1.0l0.171875 0.125q-0.125 0.796875 -0.71875 1.46875q-0.578125 0.65625 -1.46875 0.65625q-0.96875 0 -1.65625 -0.75q-0.6875 -0.765625 -0.6875 -2.03125q0 -1.375 0.703125 -2.140625q0.703125 -0.78125 1.765625 -0.78125q0.90625 0 1.484375 0.59375q0.578125 0.59375 0.578125 1.59375l-3.703125 0zm0 -0.34375l2.484375 0q-0.03125 -0.515625 -0.125 -0.71875q-0.140625 -0.328125 -0.4375 -0.515625q-0.296875 -0.1875 -0.609375 -0.1875q-0.484375 0 -0.875 0.375q-0.375 0.375 -0.4375 1.046875zm8.216797 3.078125q-0.390625 0.421875 -0.765625 0.609375q-0.375 0.171875 -0.8125 0.171875q-0.875 0 -1.53125 -0.734375q-0.65625 -0.75 -0.65625 -1.90625q0 -1.140625 0.71875 -2.09375q0.734375 -0.96875 1.875 -0.96875q0.703125 0 1.171875 0.453125l0 -1.0q0 -0.90625 -0.046875 -1.109375q-0.046875 -0.21875 -0.140625 -0.296875q-0.09375 -0.078125 -0.234375 -0.078125q-0.15625 0 -0.40625 0.09375l-0.078125 -0.203125l1.609375 -0.65625l0.265625 0l0 6.203125q0 0.9375 0.03125 1.15625q0.046875 0.203125 0.140625 0.28125q0.109375 0.078125 0.234375 0.078125q0.15625 0 0.421875 -0.09375l0.0625 0.203125l-1.59375 0.671875l-0.265625 0l0 -0.78125zm0 -0.40625l0 -2.765625q-0.046875 -0.390625 -0.21875 -0.71875q-0.171875 -0.328125 -0.46875 -0.5q-0.28125 -0.171875 -0.5625 -0.171875q-0.515625 0 -0.921875 0.46875q-0.53125 0.609375 -0.53125 1.78125q0 1.1875 0.515625 1.8125q0.515625 0.625 1.15625 0.625q0.53125 0 1.03125 -0.53125zm6.0 0.40625q-0.390625 0.421875 -0.765625 0.609375q-0.375 0.171875 -0.8125 0.171875q-0.875 0 -1.53125 -0.734375q-0.65625 -0.75 -0.65625 -1.90625q0 -1.140625 0.71875 -2.09375q0.734375 -0.96875 1.875 -0.96875q0.703125 0 1.171875 0.453125l0 -1.0q0 -0.90625 -0.046875 -1.109375q-0.046875 -0.21875 -0.140625 -0.296875q-0.09375 -0.078125 -0.234375 -0.078125q-0.15625 0 -0.40625 0.09375l-0.078125 -0.203125l1.609375 -0.65625l0.265625 0l0 6.203125q0 0.9375 0.03125 1.15625q0.046875 0.203125 0.140625 0.28125q0.109375 0.078125 0.234375 0.078125q0.15625 0 0.421875 -0.09375l0.0625 0.203125l-1.59375 0.671875l-0.265625 0l0 -0.78125zm0 -0.40625l0 -2.765625q-0.046875 -0.390625 -0.21875 -0.71875q-0.171875 -0.328125 -0.46875 -0.5q-0.28125 -0.171875 -0.5625 -0.171875q-0.515625 0 -0.921875 0.46875q-0.53125 0.609375 -0.53125 1.78125q0 1.1875 0.515625 1.8125q0.515625 0.625 1.15625 0.625q0.53125 0 1.03125 -0.53125zm3.5625 -7.3125q0.25 0 0.421875 0.171875q0.171875 0.171875 0.171875 0.421875q0 0.234375 -0.171875 0.421875q-0.171875 0.171875 -0.421875 0.171875q-0.234375 0 -0.421875 -0.171875q-0.171875 -0.1875 -0.171875 -0.421875q0 -0.25 0.171875 -0.421875q0.171875 -0.171875 0.421875 -0.171875zm0.5 2.796875l0 4.3125q0 0.515625 0.0625 0.6875q0.078125 0.15625 0.21875 0.234375q0.140625 0.078125 0.53125 0.078125l0 0.21875l-2.609375 0l0 -0.21875q0.390625 0 0.515625 -0.0625q0.140625 -0.078125 0.21875 -0.25q0.078125 -0.1875 0.078125 -0.6875l0 -2.0625q0 -0.875 -0.046875 -1.125q-0.046875 -0.1875 -0.140625 -0.265625q-0.078125 -0.078125 -0.234375 -0.078125q-0.15625 0 -0.390625 0.09375l-0.078125 -0.21875l1.609375 -0.65625l0.265625 0zm3.0371094 1.140625q0.953125 -1.140625 1.796875 -1.140625q0.4375 0 0.75 0.21875q0.328125 0.21875 0.515625 0.734375q0.125 0.34375 0.125 1.078125l0 2.28125q0 0.515625 0.078125 0.703125q0.078125 0.140625 0.21873474 0.21875q0.140625 0.078125 0.53125 0.078125l0 0.21875l-2.6562347 0l0 -0.21875l0.109375 0q0.375 0 0.515625 -0.109375q0.15625 -0.109375 0.21875 -0.328125q0.015625 -0.09375 0.015625 -0.5625l0 -2.1875q0 -0.734375 -0.1875 -1.0625q-0.1875 -0.34375 -0.640625 -0.34375q-0.703125 0 -1.390625 0.765625l0 2.828125q0 0.546875 0.0625 0.671875q0.09375 0.171875 0.234375 0.25q0.140625 0.078125 0.578125 0.078125l0 0.21875l-2.65625 0l0 -0.21875l0.125 0q0.40625 0 0.546875 -0.203125q0.140625 -0.203125 0.140625 -0.796875l0 -1.984375q0 -0.96875 -0.046875 -1.171875q-0.03125 -0.21875 -0.125 -0.296875q-0.09375 -0.078125 -0.25 -0.078125q-0.15625 0 -0.390625 0.09375l-0.078125 -0.21875l1.609375 -0.65625l0.25 0l0 1.140625zm5.8749847 2.4375q-0.5 -0.25 -0.765625 -0.671875q-0.25 -0.4375 -0.25 -0.953125q0 -0.796875 0.59375 -1.375q0.609375 -0.578125 1.546875 -0.578125q0.765625 0 1.328125 0.375l1.125 0q0.265625 0 0.296875 0.015625q0.046875 0.015625 0.0625 0.046875q0.03125 0.0625 0.03125 0.1875q0 0.15625 -0.03125 0.21875q-0.015625 0.03125 -0.0625 0.046875q-0.03125 0.015625 -0.296875 0.015625l-0.6875 0q0.328125 0.421875 0.328125 1.078125q0 0.75 -0.578125 1.28125q-0.578125 0.53125 -1.546875 0.53125q-0.390625 0 -0.8125 -0.109375q-0.25 0.21875 -0.34375 0.390625q-0.09375 0.15625 -0.09375 0.28125q0 0.09375 0.09375 0.1875q0.109375 0.09375 0.390625 0.140625q0.15625 0.015625 0.8125 0.046875q1.203125 0.015625 1.5625 0.078125q0.546875 0.078125 0.875 0.40625q0.328125 0.328125 0.328125 0.8125q0 0.65625 -0.625 1.234375q-0.921875 0.859375 -2.390625 0.859375q-1.125 0 -1.90625 -0.515625q-0.4375 -0.296875 -0.4375 -0.609375q0 -0.140625 0.0625 -0.28125q0.09375 -0.21875 0.40625 -0.59375q0.046875 -0.0625 0.609375 -0.640625q-0.3125 -0.1875 -0.4375 -0.328125q-0.125 -0.140625 -0.125 -0.328125q0 -0.203125 0.15625 -0.46875q0.171875 -0.28125 0.78125 -0.78125zm1.015625 -3.296875q-0.4375 0 -0.734375 0.359375q-0.28125 0.34375 -0.28125 1.046875q0 0.9375 0.390625 1.4375q0.3125 0.390625 0.78125 0.390625q0.4375 0 0.71875 -0.328125q0.296875 -0.34375 0.296875 -1.0625q0 -0.921875 -0.40625 -1.453125q-0.296875 -0.390625 -0.765625 -0.390625zm-1.078125 5.25q-0.265625 0.296875 -0.40625 0.546875q-0.140625 0.265625 -0.140625 0.484375q0 0.28125 0.328125 0.5q0.59375 0.359375 1.703125 0.359375q1.046875 0 1.546875 -0.375q0.5 -0.375 0.5 -0.796875q0 -0.296875 -0.296875 -0.4375q-0.296875 -0.125 -1.203125 -0.140625q-1.3125 -0.046875 -2.03125 -0.140625zm14.125 -2.203125l0.203125 0.046875l-0.6875 2.15625l-6.15625 0l0 -0.21875l0.3125 0q0.5 0 0.71875 -0.328125q0.125 -0.1875 0.125 -0.859375l0 -5.140625q0 -0.734375 -0.171875 -0.921875q-0.234375 -0.265625 -0.671875 -0.265625l-0.3125 0l0 -0.21875l3.609375 0l0 0.21875q-0.640625 0 -0.890625 0.125q-0.25 0.125 -0.34375 0.3125q-0.09375 0.1875 -0.09375 0.890625l0 5.0q0 0.484375 0.09375 0.65625q0.0625 0.125 0.203125 0.1875q0.15625 0.0625 0.921875 0.0625l0.578125 0q0.921875 0 1.28125 -0.140625q0.375 -0.140625 0.671875 -0.46875q0.3125 -0.34375 0.609375 -1.09375zm3.8769531 1.421875q-0.828125 0.640625 -1.046875 0.75q-0.3125 0.140625 -0.671875 0.140625q-0.546875 0 -0.921875 -0.375q-0.359375 -0.390625 -0.359375 -1.0q0 -0.40625 0.1875 -0.6875q0.234375 -0.390625 0.828125 -0.734375q0.59375 -0.359375 1.984375 -0.875l0 -0.203125q0 -0.8125 -0.265625 -1.109375q-0.25 -0.296875 -0.734375 -0.296875q-0.375 0 -0.59375 0.203125q-0.21875 0.203125 -0.21875 0.453125l0.015625 0.34375q0 0.265625 -0.140625 0.421875q-0.140625 0.140625 -0.359375 0.140625q-0.21875 0 -0.359375 -0.15625q-0.125 -0.15625 -0.125 -0.40625q0 -0.515625 0.515625 -0.9375q0.515625 -0.421875 1.4375 -0.421875q0.71875 0 1.171875 0.25q0.34375 0.171875 0.515625 0.5625q0.109375 0.25 0.109375 1.03125l0 1.828125q0 0.765625 0.015625 0.9375q0.03125 0.171875 0.09375 0.234375q0.078125 0.046875 0.171875 0.046875q0.09375 0 0.15625 -0.03125q0.125 -0.078125 0.46875 -0.4375l0 0.328125q-0.65625 0.890625 -1.25 0.890625q-0.28125 0 -0.453125 -0.203125q-0.171875 -0.203125 -0.171875 -0.6875zm0 -0.375l0 -2.046875q-0.890625 0.359375 -1.140625 0.5q-0.46875 0.265625 -0.671875 0.546875q-0.203125 0.28125 -0.203125 0.609375q0 0.421875 0.25 0.703125q0.265625 0.28125 0.59375 0.28125q0.4375 0 1.171875 -0.59375zm1.9824219 -4.21875l2.5 0l0 0.21875l-0.125 0q-0.265625 0 -0.40625 0.125q-0.125 0.109375 -0.125 0.28125q0 0.21875 0.1875 0.625l1.3125 2.71875l1.203125 -2.96875q0.09375 -0.25 0.09375 -0.484375q0 -0.09375 -0.03125 -0.15625q-0.046875 -0.0625 -0.15625 -0.09375q-0.09375 -0.046875 -0.34375 -0.046875l0 -0.21875l1.75 0l0 0.21875q-0.21875 0.03125 -0.34375 0.109375q-0.109375 0.0625 -0.25 0.25q-0.0625 0.078125 -0.203125 0.453125l-2.1875 5.359375q-0.3125 0.78125 -0.828125 1.171875q-0.515625 0.40625 -0.984375 0.40625q-0.34375 0 -0.578125 -0.203125q-0.21875 -0.203125 -0.21875 -0.453125q0 -0.25 0.15625 -0.40625q0.171875 -0.140625 0.453125 -0.140625q0.1875 0 0.53125 0.125q0.234375 0.09375 0.28125 0.09375q0.1875 0 0.390625 -0.1875q0.203125 -0.171875 0.421875 -0.703125l0.375 -0.9375l-1.921875 -4.046875q-0.09375 -0.171875 -0.28125 -0.453125q-0.15625 -0.203125 -0.25 -0.265625q-0.125 -0.09375 -0.421875 -0.171875l0 -0.21875zm7.203125 2.03125q-0.015625 1.1875 0.578125 1.875q0.578125 0.671875 1.375 0.671875q0.53125 0 0.921875 -0.28125q0.390625 -0.296875 0.65625 -1.0l0.171875 0.125q-0.125 0.796875 -0.71875 1.46875q-0.578125 0.65625 -1.46875 0.65625q-0.96875 0 -1.65625 -0.75q-0.6875 -0.765625 -0.6875 -2.03125q0 -1.375 0.703125 -2.140625q0.703125 -0.78125 1.765625 -0.78125q0.90625 0 1.484375 0.59375q0.578125 0.59375 0.578125 1.59375l-3.703125 0zm0 -0.34375l2.484375 0q-0.03125 -0.515625 -0.125 -0.71875q-0.140625 -0.328125 -0.4375 -0.515625q-0.296875 -0.1875 -0.609375 -0.1875q-0.484375 0 -0.875 0.375q-0.375 0.375 -0.4375 1.046875zm5.998047 -1.84375l0 1.21875q0.671875 -1.21875 1.375 -1.21875q0.328125 0 0.53125 0.203125q0.21875 0.1875 0.21875 0.453125q0 0.234375 -0.15625 0.390625q-0.15625 0.15625 -0.359375 0.15625q-0.203125 0 -0.46875 -0.203125q-0.25 -0.203125 -0.375 -0.203125q-0.109375 0 -0.234375 0.109375q-0.25 0.25 -0.53125 0.796875l0 2.578125q0 0.4375 0.109375 0.671875q0.078125 0.15625 0.265625 0.265625q0.1875 0.09375 0.5625 0.09375l0 0.21875l-2.75 0l0 -0.21875q0.40625 0 0.609375 -0.125q0.140625 -0.09375 0.203125 -0.296875q0.03125 -0.09375 0.03125 -0.5625l0 -2.078125q0 -0.9375 -0.046875 -1.109375q-0.03125 -0.1875 -0.140625 -0.265625q-0.09375 -0.09375 -0.25 -0.09375q-0.1875 0 -0.40625 0.09375l-0.0625 -0.21875l1.625 -0.65625l0.25 0z" fill-rule="nonzero"/><path fill="#000000" fill-opacity="0.0" d="m252.29921 81.020996l0.03149414 26.551186" fill-rule="evenodd"/><path stroke="#000000" stroke-width="1.0" stroke-linejoin="round" stroke-linecap="butt" d="m252.29921 81.020996l0.024383545 20.551186" fill-rule="evenodd"/><path fill="#000000" stroke="#000000" stroke-width="1.0" stroke-linecap="butt" d="m250.67186 101.57414l1.6571198 4.536133l1.646347 -4.5400543z" fill-rule="evenodd"/><path fill="#000000" fill-opacity="0.0" d="m252.29921 128.83696l0.03149414 21.13385" fill-rule="evenodd"/><path stroke="#000000" stroke-width="1.0" stroke-linejoin="round" stroke-linecap="butt" d="m252.29921 128.83696l0.02255249 15.133865" fill-rule="evenodd"/><path fill="#000000" stroke="#000000" stroke-width="1.0" stroke-linecap="butt" d="m250.67003 143.97328l1.6585083 4.5356293l1.6449585 -4.540558z" fill-rule="evenodd"/><path fill="#000000" fill-opacity="0.0" d="m252.29921 229.63696l0.03149414 22.078735" fill-rule="evenodd"/><path stroke="#000000" stroke-width="1.0" stroke-linejoin="round" stroke-linecap="butt" d="m252.29921 229.63695l0.022949219 16.07875" fill-rule="evenodd"/><path fill="#000000" stroke="#000000" stroke-width="1.0" stroke-linecap="butt" d="m250.67043 245.71806l1.6582031 4.535736l1.6452484 -4.540451z" fill-rule="evenodd"/><path fill="#000000" fill-opacity="0.0" d="m124.2664 81.020996l68.44095 0l0 38.771652l-68.44095 0z" fill-rule="evenodd"/><path fill="#cc0000" d="m146.89313 92.701l0 2.15625l0.09375 0q0.515625 0 0.734375 -0.3125q0.234375 -0.3125 0.296875 -0.9375l0.140625 0l0 2.78125l-0.140625 0q-0.046875 -0.453125 -0.203125 -0.734375q-0.15625 -0.296875 -0.359375 -0.390625q-0.1875 -0.109375 -0.5625 -0.109375l0 1.5q0 0.4375 0.03125 0.53125q0.03125 0.09375 0.125 0.15625q0.109375 0.0625 0.34375 0.0625l0.3125 0q0.75 0 1.1875 -0.34375q0.453125 -0.34375 0.640625 -1.046875l0.15625 0l-0.25 1.6875l-4.578125 0l0 -0.140625l0.1875 0q0.21875 0 0.359375 -0.09375q0.109375 -0.046875 0.15625 -0.1875q0.046875 -0.09375 0.046875 -0.484375l0 -3.484375q0 -0.359375 -0.015625 -0.4375q-0.046875 -0.140625 -0.140625 -0.21875q-0.15625 -0.109375 -0.40625 -0.109375l-0.1875 0l0 -0.140625l4.4375 0l0 1.5625l-0.140625 0q-0.125 -0.578125 -0.328125 -0.828125q-0.203125 -0.25 -0.578125 -0.359375q-0.21875 -0.078125 -0.8125 -0.078125l-0.546875 0zm5.5859375 2.765625l0.625 1.203125q0.328125 0.625 0.515625 0.796875q0.109375 0.078125 0.296875 0.09375l0 0.140625l-2.03125 0l0 -0.140625q0.234375 -0.015625 0.28125 -0.0625q0.0625 -0.046875 0.0625 -0.125q0 -0.109375 -0.125 -0.34375l-0.3125 -0.59375l-0.265625 0.40625q-0.1875 0.265625 -0.21875 0.3125q-0.03125 0.078125 -0.03125 0.140625q0 0.078125 0.03125 0.140625q0.046875 0.0625 0.109375 0.09375q0.0625 0.03125 0.234375 0.03125l0 0.140625l-1.421875 0l0 -0.140625q0.265625 0 0.484375 -0.140625q0.21875 -0.15625 0.640625 -0.78125l0.296875 -0.4375l-0.625 -1.171875q-0.3125 -0.5625 -0.46875 -0.6875q-0.140625 -0.140625 -0.328125 -0.15625l0 -0.140625l2.015625 0l0 0.140625l-0.09375 0.015625l-0.203125 0.0625q-0.03125 0.03125 -0.03125 0.09375q0 0.0625 0.015625 0.125q0.015625 0.015625 0.109375 0.203125l0.28125 0.53125l0.15625 -0.203125q0.3125 -0.4375 0.3125 -0.609375q0 -0.078125 -0.078125 -0.125q-0.0625 -0.0625 -0.234375 -0.09375l0 -0.140625l1.28125 0l0 0.140625q-0.234375 0.015625 -0.4375 0.15625q-0.203125 0.140625 -0.46875 0.53125l-0.375 0.59375zm3.28125 -2.75l0 1.328125l0.875 0l0 0.390625l-0.875 0l0 2.25q0 0.3125 0.03125 0.40625q0.03125 0.09375 0.09375 0.15625q0.078125 0.046875 0.140625 0.046875q0.265625 0 0.484375 -0.375l0.125 0.078125q-0.328125 0.75 -1.03125 0.75q-0.34375 0 -0.59375 -0.1875q-0.234375 -0.203125 -0.296875 -0.4375q-0.046875 -0.125 -0.046875 -0.71875l0 -1.96875l-0.46875 0l0 -0.140625q0.484375 -0.34375 0.828125 -0.71875q0.34375 -0.390625 0.609375 -0.859375l0.125 0zm4.3046875 3.03125l-2.0 0q0.03125 0.71875 0.390625 1.140625q0.265625 0.328125 0.640625 0.328125q0.234375 0 0.421875 -0.125q0.203125 -0.140625 0.421875 -0.484375l0.125 0.09375q-0.296875 0.609375 -0.65625 0.859375q-0.359375 0.25 -0.828125 0.25q-0.8125 0 -1.234375 -0.625q-0.328125 -0.5 -0.328125 -1.25q0 -0.921875 0.484375 -1.453125q0.5 -0.546875 1.171875 -0.546875q0.546875 0 0.953125 0.453125q0.40625 0.453125 0.4375 1.359375zm-0.953125 -0.265625q0 -0.625 -0.078125 -0.859375q-0.0625 -0.234375 -0.203125 -0.359375q-0.078125 -0.078125 -0.21875 -0.078125q-0.203125 0 -0.328125 0.203125q-0.234375 0.34375 -0.234375 0.953125l0 0.140625l1.0625 0zm2.9101562 -1.4375l0 0.46875q0.28125 -0.296875 0.53125 -0.4375q0.265625 -0.140625 0.5625 -0.140625q0.359375 0 0.59375 0.203125q0.234375 0.1875 0.3125 0.484375q0.0625 0.21875 0.0625 0.859375l0 1.421875q0 0.421875 0.0625 0.53125q0.078125 0.09375 0.328125 0.125l0 0.140625l-1.84375 0l0 -0.140625q0.203125 -0.03125 0.296875 -0.171875q0.0625 -0.09375 0.0625 -0.484375l0 -1.625q0 -0.453125 -0.046875 -0.5625q-0.03125 -0.125 -0.125 -0.1875q-0.078125 -0.0625 -0.171875 -0.0625q-0.34375 0 -0.625 0.484375l0 1.953125q0 0.40625 0.078125 0.515625q0.078125 0.109375 0.28125 0.140625l0 0.140625l-1.84375 0l0 -0.140625q0.21875 -0.03125 0.328125 -0.15625q0.0625 -0.078125 0.0625 -0.5l0 -2.0625q0 -0.421875 -0.078125 -0.515625q-0.078125 -0.109375 -0.3125 -0.140625l0 -0.140625l1.484375 0zm6.5117188 -1.640625l0 4.203125q0 0.421875 0.015625 0.5q0.03125 0.125 0.109375 0.1875q0.09375 0.0625 0.3125 0.078125l0 0.140625l-1.53125 0.296875l0 -0.578125q-0.28125 0.328125 -0.5 0.453125q-0.21875 0.125 -0.484375 0.125q-0.703125 0 -1.109375 -0.625q-0.328125 -0.515625 -0.328125 -1.25q0 -0.59375 0.203125 -1.046875q0.203125 -0.46875 0.546875 -0.703125q0.359375 -0.25 0.765625 -0.25q0.265625 0 0.46875 0.109375q0.203125 0.09375 0.4375 0.34375l0 -1.09375q0 -0.421875 -0.046875 -0.5q-0.046875 -0.125 -0.140625 -0.171875q-0.09375 -0.0625 -0.34375 -0.0625l0 -0.15625l1.625 0zm-1.09375 2.46875q-0.296875 -0.546875 -0.71875 -0.546875q-0.140625 0 -0.234375 0.078125q-0.140625 0.125 -0.234375 0.4375q-0.09375 0.296875 -0.09375 0.921875q0 0.6875 0.09375 1.03125q0.109375 0.328125 0.28125 0.46875q0.09375 0.078125 0.25 0.078125q0.34375 0 0.65625 -0.546875l0 -1.921875zm4.2929688 -0.921875l0.0625 1.234375l-0.140625 0q-0.234375 -0.546875 -0.5 -0.75q-0.25 -0.203125 -0.5 -0.203125q-0.15625 0 -0.28125 0.109375q-0.109375 0.109375 -0.109375 0.25q0 0.09375 0.078125 0.203125q0.125 0.15625 0.703125 0.546875q0.578125 0.390625 0.75 0.65625q0.1875 0.265625 0.1875 0.609375q0 0.296875 -0.15625 0.59375q-0.140625 0.296875 -0.421875 0.453125q-0.28125 0.15625 -0.609375 0.15625q-0.265625 0 -0.703125 -0.171875q-0.125 -0.03125 -0.15625 -0.03125q-0.140625 0 -0.21875 0.1875l-0.125 0l-0.0625 -1.3125l0.125 0q0.171875 0.515625 0.484375 0.78125q0.3125 0.25 0.578125 0.25q0.1875 0 0.296875 -0.109375q0.125 -0.125 0.125 -0.28125q0 -0.1875 -0.125 -0.328125q-0.109375 -0.140625 -0.515625 -0.40625q-0.59375 -0.421875 -0.765625 -0.640625q-0.265625 -0.3125 -0.265625 -0.703125q0 -0.421875 0.296875 -0.765625q0.296875 -0.34375 0.84375 -0.34375q0.296875 0 0.578125 0.140625q0.09375 0.0625 0.171875 0.0625q0.0625 0 0.109375 -0.03125q0.046875 -0.03125 0.140625 -0.15625l0.125 0z" fill-rule="nonzero"/><path fill="#cc0000" d="m141.29742 107.41037l-1.234375 -2.828125q-0.21875 -0.515625 -0.34375 -0.65625q-0.09375 -0.09375 -0.265625 -0.140625l0 -0.140625l1.9375 0l0 0.140625q-0.1875 0 -0.25 0.078125q-0.09375 0.078125 -0.09375 0.203125q0 0.140625 0.171875 0.53125l0.609375 1.375l0.46875 -1.1875q0.21875 -0.5 0.21875 -0.71875q0 -0.109375 -0.09375 -0.1875q-0.09375 -0.078125 -0.3125 -0.09375l0 -0.140625l1.203125 0l0 0.140625q-0.171875 0.03125 -0.28125 0.140625q-0.109375 0.09375 -0.328125 0.609375l-1.21875 2.875l-0.1875 0zm4.078125 -3.875q0.46875 0 0.875 0.25q0.421875 0.25 0.625 0.703125q0.21875 0.453125 0.21875 0.984375q0 0.78125 -0.390625 1.296875q-0.484375 0.640625 -1.328125 0.640625q-0.8125 0 -1.265625 -0.578125q-0.4375 -0.578125 -0.4375 -1.34375q0 -0.78125 0.453125 -1.359375q0.453125 -0.59375 1.25 -0.59375zm0.015625 0.28125q-0.203125 0 -0.34375 0.15625q-0.140625 0.140625 -0.1875 0.59375q-0.046875 0.4375 -0.046875 1.21875q0 0.421875 0.046875 0.78125q0.046875 0.28125 0.1875 0.4375q0.140625 0.140625 0.328125 0.140625q0.171875 0 0.28125 -0.109375q0.15625 -0.125 0.203125 -0.359375q0.078125 -0.375 0.078125 -1.5q0 -0.671875 -0.078125 -0.921875q-0.0625 -0.25 -0.203125 -0.359375q-0.109375 -0.078125 -0.265625 -0.078125zm5.234375 2.546875l0.125 0.09375q-0.265625 0.484375 -0.65625 0.71875q-0.375 0.234375 -0.8125 0.234375q-0.71875 0 -1.15625 -0.546875q-0.4375 -0.5625 -0.4375 -1.328125q0 -0.75 0.390625 -1.3125q0.484375 -0.6875 1.328125 -0.6875q0.5625 0 0.890625 0.296875q0.34375 0.28125 0.34375 0.625q0 0.21875 -0.140625 0.359375q-0.125 0.125 -0.34375 0.125q-0.234375 0 -0.390625 -0.140625q-0.140625 -0.15625 -0.1875 -0.546875q-0.015625 -0.25 -0.109375 -0.34375q-0.09375 -0.09375 -0.203125 -0.09375q-0.1875 0 -0.328125 0.1875q-0.203125 0.3125 -0.203125 0.921875q0 0.515625 0.15625 1.0q0.171875 0.46875 0.453125 0.6875q0.21875 0.171875 0.515625 0.171875q0.1875 0 0.359375 -0.078125q0.171875 -0.09375 0.40625 -0.34375zm2.5820312 0.390625q-0.65625 0.59375 -1.1875 0.59375q-0.3125 0 -0.53125 -0.203125q-0.203125 -0.203125 -0.203125 -0.515625q0 -0.421875 0.359375 -0.75q0.359375 -0.328125 1.5625 -0.890625l0 -0.359375q0 -0.421875 -0.046875 -0.53125q-0.03125 -0.109375 -0.15625 -0.1875q-0.125 -0.078125 -0.28125 -0.078125q-0.265625 0 -0.421875 0.109375q-0.109375 0.078125 -0.109375 0.171875q0 0.078125 0.109375 0.203125q0.15625 0.171875 0.15625 0.328125q0 0.1875 -0.140625 0.328125q-0.140625 0.125 -0.375 0.125q-0.25 0 -0.421875 -0.140625q-0.15625 -0.15625 -0.15625 -0.359375q0 -0.28125 0.21875 -0.53125q0.21875 -0.25 0.609375 -0.390625q0.40625 -0.140625 0.84375 -0.140625q0.515625 0 0.8125 0.21875q0.3125 0.21875 0.40625 0.484375q0.046875 0.15625 0.046875 0.75l0 1.421875q0 0.25 0.015625 0.3125q0.03125 0.0625 0.0625 0.09375q0.046875 0.03125 0.09375 0.03125q0.09375 0 0.203125 -0.140625l0.125 0.09375q-0.203125 0.28125 -0.421875 0.421875q-0.203125 0.125 -0.46875 0.125q-0.3125 0 -0.484375 -0.140625q-0.171875 -0.15625 -0.21875 -0.453125zm0 -0.28125l0 -1.21875q-0.46875 0.28125 -0.703125 0.59375q-0.140625 0.203125 -0.140625 0.421875q0 0.1875 0.125 0.3125q0.09375 0.109375 0.265625 0.109375q0.203125 0 0.453125 -0.21875zm3.40625 -4.46875l0 2.015625q0.453125 -0.484375 1.0 -0.484375q0.375 0 0.703125 0.21875q0.34375 0.21875 0.53125 0.625q0.1875 0.40625 0.1875 0.9375q0 0.609375 -0.25 1.09375q-0.234375 0.484375 -0.640625 0.75q-0.390625 0.25 -0.890625 0.25q-0.296875 0 -0.53125 -0.09375q-0.234375 -0.09375 -0.453125 -0.3125l-0.609375 0.40625l-0.125 0l0 -4.65625q0 -0.3125 -0.03125 -0.390625q-0.046875 -0.109375 -0.125 -0.15625q-0.078125 -0.046875 -0.28125 -0.0625l0 -0.140625l1.515625 0zm0 2.359375l0 1.625q0 0.5 0.015625 0.625q0.046875 0.234375 0.1875 0.375q0.15625 0.140625 0.390625 0.140625q0.1875 0 0.328125 -0.109375q0.15625 -0.109375 0.25 -0.4375q0.09375 -0.34375 0.09375 -1.21875q0 -0.84375 -0.21875 -1.15625q-0.140625 -0.21875 -0.40625 -0.21875q-0.328125 0 -0.640625 0.375zm6.5585938 -0.71875l0 2.859375q0 0.421875 0.078125 0.53125q0.078125 0.09375 0.3125 0.125l0 0.140625l-1.484375 0l0 -0.484375q-0.265625 0.3125 -0.53125 0.453125q-0.25 0.140625 -0.578125 0.140625q-0.3125 0 -0.546875 -0.1875q-0.234375 -0.1875 -0.328125 -0.4375q-0.078125 -0.265625 -0.078125 -0.890625l0 -1.453125q0 -0.421875 -0.078125 -0.515625q-0.078125 -0.109375 -0.3125 -0.140625l0 -0.140625l1.484375 0l0 2.5q0 0.390625 0.03125 0.5q0.046875 0.109375 0.125 0.171875q0.078125 0.0625 0.1875 0.0625q0.140625 0 0.25 -0.078125q0.15625 -0.09375 0.375 -0.40625l0 -1.953125q0 -0.421875 -0.078125 -0.515625q-0.078125 -0.109375 -0.3125 -0.140625l0 -0.140625l1.484375 0zm2.3554688 -1.640625l0 4.53125q0 0.390625 0.078125 0.5q0.09375 0.109375 0.359375 0.125l0 0.140625l-1.96875 0l0 -0.140625q0.234375 -0.015625 0.359375 -0.140625q0.078125 -0.09375 0.078125 -0.484375l0 -3.78125q0 -0.375 -0.09375 -0.484375q-0.09375 -0.109375 -0.34375 -0.125l0 -0.140625l1.53125 0zm2.8007812 4.75q-0.65625 0.59375 -1.1875 0.59375q-0.3125 0 -0.53125 -0.203125q-0.203125 -0.203125 -0.203125 -0.515625q0 -0.421875 0.359375 -0.75q0.359375 -0.328125 1.5625 -0.890625l0 -0.359375q0 -0.421875 -0.046875 -0.53125q-0.03125 -0.109375 -0.15625 -0.1875q-0.125 -0.078125 -0.28125 -0.078125q-0.265625 0 -0.421875 0.109375q-0.109375 0.078125 -0.109375 0.171875q0 0.078125 0.109375 0.203125q0.15625 0.171875 0.15625 0.328125q0 0.1875 -0.140625 0.328125q-0.140625 0.125 -0.375 0.125q-0.25 0 -0.421875 -0.140625q-0.15625 -0.15625 -0.15625 -0.359375q0 -0.28125 0.21875 -0.53125q0.21875 -0.25 0.609375 -0.390625q0.40625 -0.140625 0.84375 -0.140625q0.515625 0 0.8125 0.21875q0.3125 0.21875 0.40625 0.484375q0.046875 0.15625 0.046875 0.75l0 1.421875q0 0.25 0.015625 0.3125q0.03125 0.0625 0.0625 0.09375q0.046875 0.03125 0.09375 0.03125q0.09375 0 0.203125 -0.140625l0.125 0.09375q-0.203125 0.28125 -0.421875 0.421875q-0.203125 0.125 -0.46875 0.125q-0.3125 0 -0.484375 -0.140625q-0.171875 -0.15625 -0.21875 -0.453125zm0 -0.28125l0 -1.21875q-0.46875 0.28125 -0.703125 0.59375q-0.140625 0.203125 -0.140625 0.421875q0 0.1875 0.125 0.3125q0.09375 0.109375 0.265625 0.109375q0.203125 0 0.453125 -0.21875zm3.5 -2.828125l0 0.828125q0.375 -0.5625 0.640625 -0.75q0.28125 -0.1875 0.53125 -0.1875q0.21875 0 0.34375 0.140625q0.140625 0.125 0.140625 0.375q0 0.265625 -0.140625 0.40625q-0.125 0.140625 -0.296875 0.140625q-0.203125 0 -0.359375 -0.125q-0.15625 -0.140625 -0.1875 -0.15625q-0.03125 -0.015625 -0.078125 -0.015625q-0.125 0 -0.21875 0.078125q-0.15625 0.140625 -0.25 0.390625q-0.125 0.375 -0.125 0.828125l0 0.84375l0.015625 0.21875q0 0.21875 0.015625 0.28125q0.046875 0.109375 0.140625 0.15625q0.09375 0.046875 0.3125 0.0625l0 0.140625l-1.96875 0l0 -0.140625q0.234375 -0.015625 0.3125 -0.125q0.09375 -0.125 0.09375 -0.59375l0 -2.015625q0 -0.3125 -0.03125 -0.40625q-0.046875 -0.109375 -0.125 -0.15625q-0.0625 -0.046875 -0.25 -0.078125l0 -0.140625l1.484375 0zm3.7226562 3.8125l-1.1875 -2.71875q-0.265625 -0.609375 -0.390625 -0.75q-0.125 -0.140625 -0.3125 -0.203125l0 -0.140625l1.953125 0l0 0.140625q-0.203125 0.015625 -0.28125 0.078125q-0.078125 0.0625 -0.078125 0.15625q0 0.15625 0.203125 0.59375l0.625 1.421875l0.421875 -1.09375q0.234375 -0.59375 0.234375 -0.828125q0 -0.140625 -0.09375 -0.21875q-0.09375 -0.09375 -0.34375 -0.109375l0 -0.140625l1.21875 0l0 0.140625q-0.171875 0.03125 -0.296875 0.15625q-0.109375 0.109375 -0.375 0.796875l-1.03125 2.71875q-0.40625 1.015625 -0.59375 1.25q-0.265625 0.328125 -0.671875 0.328125q-0.328125 0 -0.53125 -0.1875q-0.203125 -0.1875 -0.203125 -0.453125q0 -0.21875 0.140625 -0.375q0.140625 -0.140625 0.34375 -0.140625q0.203125 0 0.3125 0.125q0.125 0.125 0.125 0.375q0 0.15625 0.03125 0.203125q0.03125 0.03125 0.09375 0.03125q0.09375 0 0.203125 -0.109375q0.15625 -0.15625 0.359375 -0.75l0.125 -0.296875z" fill-rule="nonzero"/></g></svg>